<?xml version="1.0" standalone="no"?>
<!DOCTYPE svg PUBLIC "-//W3C//DTD SVG 1.1//EN" "http://www.w3.org/Graphics/SVG/1.1/DTD/svg11.dtd" >
<svg xmlns="http://www.w3.org/2000/svg">
<metadata></metadata>
<defs>
<font id="rupi_foradianroman" horiz-adv-x="1303" >
<font-face units-per-em="2048" ascent="1556" descent="-492" />
<missing-glyph horiz-adv-x="651" />
<glyph horiz-adv-x="2048" />
<glyph horiz-adv-x="2048" />
<glyph unicode="&#xd;" horiz-adv-x="651" />
<glyph unicode=" "  horiz-adv-x="651" />
<glyph unicode="&#x09;" horiz-adv-x="651" />
<glyph unicode="&#xa0;" horiz-adv-x="651" />
<glyph unicode="!" horiz-adv-x="821" d="M309 0v254h203v-254h-203zM309 838v655h203v-655l-20 -357h-162z" />
<glyph unicode="&#x22;" horiz-adv-x="942" d="M197 938v555h170v-555h-170zM575 938v555h170v-555h-170z" />
<glyph unicode="#" horiz-adv-x="1716" d="M158 414v153h352l84 334h-322v154h361l102 415h162l-104 -415h292l105 415h160l-103 -415h312v-154h-351l-82 -334h318v-153h-357l-104 -414h-160l103 414h-293l-103 -414h-161l104 414h-315zM672 567h293l82 334h-291z" />
<glyph unicode="$" d="M170 92v180q102 -64 206.5 -96.5t215.5 -33.5v456q-221 36 -321.5 122t-100.5 236q0 163 109 257t313 108v235h100v-232q93 -4 180 -19.5t170 -42.5v-175q-83 42 -170.5 65t-179.5 27v-427q227 -35 334 -125t107 -246q0 -169 -113.5 -266.5t-327.5 -112.5v-303h-100 l-1 301q-105 2 -210 24.5t-211 67.5zM354 973q0 -86 56.5 -134t181.5 -69v410q-116 -13 -177 -66t-61 -141zM692 145q127 17 191.5 72t64.5 145q0 88 -61.5 140t-194.5 76v-433z" />
<glyph unicode="%" horiz-adv-x="1946" d="M113 1114q0 186 93 296t251 110t252 -109.5t94 -296.5q0 -189 -93.5 -298t-252.5 -109t-251.5 109.5t-92.5 297.5zM272 1114q0 -132 49 -206t136 -74t136.5 74t49.5 206q0 129 -50 204t-136 75t-135.5 -74.5t-49.5 -204.5zM426 -29l934 1549h160l-934 -1549h-160z M1143 377q0 188 93.5 297.5t252.5 109.5q158 0 251 -110t93 -297t-93.5 -296.5t-250.5 -109.5q-160 0 -253 109.5t-93 296.5zM1303 377q0 -130 49.5 -204.5t136.5 -74.5q85 0 134.5 74.5t49.5 204.5q0 131 -49.5 205.5t-134.5 74.5q-87 0 -136.5 -74t-49.5 -206z" />
<glyph unicode="&#x26;" horiz-adv-x="1597" d="M129 461q0 128 67 240.5t201 211.5q-48 63 -73 125.5t-25 122.5q0 162 111 260.5t295 98.5q83 0 165.5 -18t167.5 -54v-182q-87 47 -166 71.5t-147 24.5q-105 0 -170.5 -55.5t-65.5 -143.5q0 -51 29.5 -102.5t120.5 -145.5l508 -520q59 89 92 190.5t39 215.5h186 q-12 -132 -64 -261t-145 -255l279 -285h-252l-143 147q-104 -89 -218 -132.5t-245 -43.5q-241 0 -394 137.5t-153 352.5zM322 473q0 -146 106 -243t266 -97q95 0 178 31.5t156 95.5l-530 543q-91 -81 -133.5 -161.5t-42.5 -168.5z" />
<glyph unicode="'" horiz-adv-x="563" d="M197 938v555h170v-555h-170z" />
<glyph unicode="(" horiz-adv-x="799" d="M176 643q0 223 74 449t225 462h160q-134 -230 -199 -455t-65 -456t65.5 -457.5t198.5 -455.5h-160q-150 235 -224.5 462t-74.5 451z" />
<glyph unicode=")" horiz-adv-x="799" d="M164 -270q133 229 198.5 455.5t65.5 457.5t-65.5 456t-198.5 455h160q150 -236 224.5 -462t74.5 -449q0 -224 -74.5 -451t-224.5 -462h-160z" />
<glyph unicode="*" horiz-adv-x="1024" d="M61 858l359 195l-359 194l58 99l336 -203v377h114v-377l336 203l58 -99l-359 -194l359 -195l-58 -98l-336 203v-377h-114v377l-336 -203z" />
<glyph unicode="+" horiz-adv-x="1716" d="M217 557v170h557v557h168v-557h557v-170h-557v-557h-168v557h-557z" />
<glyph unicode="," horiz-adv-x="651" d="M158 -238l82 320v172h211v-172l-164 -320h-129z" />
<glyph unicode="-" horiz-adv-x="739" d="M100 479v164h539v-164h-539z" />
<glyph unicode="." horiz-adv-x="651" d="M219 0v254h211v-254h-211z" />
<glyph unicode="/" horiz-adv-x="690" d="M0 -190l520 1683h170l-520 -1683h-170z" />
<glyph unicode="0" d="M135 745q0 378 132.5 576.5t383.5 198.5t383.5 -198.5t132.5 -576.5q0 -377 -132.5 -575.5t-383.5 -198.5t-383.5 198.5t-132.5 575.5zM338 745q0 -307 78.5 -460.5t234.5 -153.5q157 0 235.5 153.5t78.5 460.5q0 308 -78.5 461.5t-235.5 153.5q-156 0 -234.5 -153.5 t-78.5 -461.5z" />
<glyph unicode="1" d="M225 1237v184l357 72h202v-1323h330v-170h-860v170h330v1139z" />
<glyph unicode="2" d="M150 0v170q115 119 313.5 319.5t249.5 258.5q97 109 135.5 184.5t38.5 148.5q0 119 -83.5 194t-217.5 75q-95 0 -200.5 -33t-225.5 -100v204q122 49 228 74t194 25q232 0 370 -116t138 -310q0 -92 -34.5 -174.5t-125.5 -194.5q-25 -29 -159 -167.5t-378 -387.5h705v-170 h-948z" />
<glyph unicode="3" d="M156 45v195q84 -49 184 -74t209 -25q190 0 289.5 75t99.5 218q0 132 -92.5 206.5t-257.5 74.5h-174v166h182q149 0 228 59.5t79 171.5q0 115 -81.5 176.5t-233.5 61.5q-83 0 -178 -18t-209 -56v180q115 32 215.5 48t189.5 16q230 0 364 -104.5t134 -282.5 q0 -124 -71 -209.5t-202 -118.5q145 -31 226.5 -129t81.5 -242q0 -221 -152 -342t-432 -121q-94 0 -193.5 18.5t-205.5 55.5z" />
<glyph unicode="4" d="M100 352v195l621 946h254v-973h213v-168h-213v-352h-201v352h-674zM264 520h510v797z" />
<glyph unicode="5" d="M158 35v203q90 -49 186 -73t203 -24q173 0 274 91t101 247t-101 247t-274 91q-81 0 -161.5 -18t-164.5 -56v750h793v-170h-608v-366q44 15 88 22.5t88 7.5q250 0 396 -137t146 -371q0 -241 -150 -374.5t-423 -133.5q-94 0 -191.5 16t-201.5 48z" />
<glyph unicode="6" d="M143 745q0 354 168 564.5t451 210.5q76 0 153.5 -15t161.5 -45v-184q-76 36 -153.5 55t-153.5 19q-200 0 -305.5 -135t-120.5 -408q59 87 148 133.5t196 46.5q225 0 355.5 -136.5t130.5 -371.5q0 -230 -136 -369t-362 -139q-259 0 -396 198.5t-137 575.5zM381 479 q0 -161 79.5 -254.5t215.5 -93.5t215.5 93.5t79.5 254.5q0 162 -79.5 255t-215.5 93t-215.5 -93t-79.5 -255z" />
<glyph unicode="7" d="M168 1323v170h960v-86l-542 -1407h-211l510 1323h-717z" />
<glyph unicode="8" d="M139 420q0 143 82 242t228 133q-130 32 -202.5 121t-72.5 217q0 179 127.5 283t349.5 104q223 0 350 -104t127 -283q0 -128 -72.5 -217t-201.5 -121q146 -34 227.5 -133t81.5 -242q0 -217 -132.5 -333t-379.5 -116t-379.5 116t-132.5 333zM342 420q0 -135 82.5 -212 t226.5 -77t227 77.5t83 211.5q0 135 -82.5 212t-227.5 77q-144 0 -226.5 -77t-82.5 -212zM375 1114q0 -116 72.5 -181t203.5 -65q130 0 203.5 65t73.5 181t-73.5 181t-203.5 65q-131 0 -203.5 -65t-72.5 -181z" />
<glyph unicode="9" d="M129 1012q0 230 136 369t362 139q259 0 395.5 -198.5t136.5 -576.5q0 -353 -167.5 -563.5t-450.5 -210.5q-76 0 -154 15t-162 45v184q76 -36 154 -55t153 -19q200 0 305.5 134.5t120.5 408.5q-58 -86 -147 -132t-197 -46q-224 0 -354.5 135.5t-130.5 370.5zM332 1012 q0 -162 79.5 -255t215.5 -93t215.5 93t79.5 255q0 161 -79.5 254.5t-215.5 93.5t-215.5 -93.5t-79.5 -254.5z" />
<glyph unicode=":" horiz-adv-x="690" d="M240 0v254h211v-254h-211zM240 805v254h211v-254h-211z" />
<glyph unicode=";" horiz-adv-x="690" d="M158 -238l82 320v172h211v-172l-164 -320h-129zM240 805v254h211v-254h-211z" />
<glyph unicode="&#x3c;" horiz-adv-x="1716" d="M217 559v166l1282 465v-182l-1032 -367l1032 -365v-182z" />
<glyph unicode="=" horiz-adv-x="1716" d="M217 352v170h1282v-170h-1282zM217 762v168h1282v-168h-1282z" />
<glyph unicode="&#x3e;" horiz-adv-x="1716" d="M217 94v182l1030 365l-1030 367v182l1282 -465v-166z" />
<glyph unicode="?" horiz-adv-x="1087" d="M147 1219v188q94 57 190.5 85t199.5 28q184 0 295.5 -97t111.5 -256q0 -76 -36 -144.5t-126 -154.5l-88 -86q-47 -47 -66.5 -73.5t-27.5 -51.5q-6 -21 -9 -51t-3 -82v-123h-191v154q0 101 28 166t118 151l90 89q57 53 82.5 100t25.5 96q0 89 -65.5 144t-173.5 55 q-79 0 -168.5 -35t-186.5 -102zM391 0v254h203v-254h-203z" />
<glyph unicode="@" horiz-adv-x="2048" d="M135 543q0 182 68 347t194 290q129 127 298 194.5t358 67.5q212 0 393.5 -87t304.5 -247q75 -98 114.5 -213t39.5 -238q0 -263 -159 -415t-439 -158v154q-60 -77 -137.5 -113.5t-180.5 -36.5q-172 0 -279.5 124.5t-107.5 324.5t108 325t279 125q103 0 181 -37.5 t137 -113.5v131h143v-736q146 22 228.5 133.5t82.5 288.5q0 107 -31.5 201t-95.5 174q-104 131 -253.5 200.5t-325.5 69.5q-123 0 -236 -32.5t-209 -96.5q-157 -102 -245.5 -267.5t-88.5 -358.5q0 -159 57.5 -298t166.5 -245q105 -104 243 -158.5t295 -54.5 q129 0 253.5 43.5t228.5 124.5l90 -111q-125 -97 -272.5 -148.5t-299.5 -51.5q-185 0 -349 65.5t-292 190.5t-195 289.5t-67 353.5zM762 537q0 -143 71 -224.5t195 -81.5q123 0 193.5 82t70.5 224q0 140 -72 222.5t-194 82.5q-121 0 -192.5 -82t-71.5 -223z" />
<glyph unicode="A" d="M194 1033h403q-23 -95 -106 -163q-79 -65 -294 -88v-75l532 -705h374v48q-99 15 -164 55q-80 49 -192 199l-323 432q267 58 347 145q62 68 84 152h248v123h-239q-9 109 -81 191q-23 26 -49 47h369v124h-909v-124h235q47 -21 84 -57q76 -72 89 -181h-408v-123z" />
<glyph unicode="B" d="M214 1034h388q-22 -95 -102 -163q-76 -65 -284 -89v-74h1l512 -706h360v47q-95 16 -157 56q-77 49 -185 199l-312 433q257 58 335 145q60 68 80 152h189l50 124h-230q-9 109 -78 191q-22 25 -46 47h304l50 124h-825l-50 -124h226q46 -21 82 -57q72 -73 85 -181h-343z" />
<glyph unicode="C" d="M200 1075h381v-195h-278l-21 -28l326 -850h163q-151 384 -301 761q14 0 47 -2q33 -1 49 -1q171 0 171 114v201h366v141h-366v161h366v141h-903v-141h381v-161h-381v-141z" />
<glyph unicode="D" d="M196 1070h382v-194h-279l-21 -28l327 -846h164q-151 382 -302 757q14 0 47 -1q33 -2 50 -2q170 0 170 114v200h312l56 140h-368v161h312l56 140h-850l-56 -140h382v-161h-326z" />
<glyph unicode="E" d="M96 995h459q-24 -145 -150 -205q-38 -18 -151 -25v-127q36 -8 54 -29q287 -391 343 -454q64 -68 134 -107q107 -50 453 -50q1 0 3 1v96q-129 20 -177 41q-51 21 -122 89q-243 241 -414 490q-2 4 -1 11q2 7 6 9q214 90 274 260h268v161h-247q-10 114 -88 201h335v161h-979 v-161h302q119 -61 150 -201h-452v-161z" />
<glyph unicode="F" d="M105 995h468q-24 -144 -150 -205q-37 -18 -151 -24v-127q36 -8 54 -30q287 -390 343 -454q64 -67 134 -106q107 -51 453 -51q1 1 3 2v95q-129 21 -177 41q-51 22 -122 89q-243 242 -414 491q-2 3 0 10q1 7 5 9q214 91 274 260h235l52 161h-266q-10 114 -88 201h286 l53 161h-940l-52 -161h311q119 -61 150 -201h-409z" />
<glyph unicode="G" d="M136 993h470q-26 -101 -114 -176q-56 -47 -119 -62q-36 -9 -102 -13v-37q34 -9 63 -29q63 -43 139 -160q76 -118 151 -272l84 -170l38 -76h395v25q-49 4 -77 17t-58 47q-37 40 -91 131q-54 90 -160 288q-45 86 -68 119q-22 34 -50 57q-34 29 -105 56q86 17 138 36t95 49 q96 70 126 170h182l80 163h-254q-13 75 -59 134q-6 9 -15 19h248l80 163h-938l-79 -163h403q25 -30 42 -66q20 -41 29 -87h-395z" />
<glyph unicode="H" d="M157 748q128 -127 237 -257l415 -495h319v58h-27q-21 0 -42 9q-20 10 -81 77l-228 263q-173 197 -290 346q230 42 351 156q68 64 98 142h219v135h-197q-3 92 -55 159q-14 20 -34 38h286v135h-971v-135h361q39 -17 67 -39q75 -60 91 -158h-519v-135h514q-23 -97 -103 -162 q-113 -91 -312 -91q-33 0 -99 5v-51z" />
<glyph unicode="I" d="M160 1015h414q-51 -172 -235 -240q-22 -9 -53 -17v-85q112 -137 352 -393q321 -343 416 -386l96 15q-147 155 -379 502q-194 292 -226 364q161 89 253 240h281l46 160h-271q0 13 0 12q0 101 -68 171h293l46 160h-919l-46 -160h279q120 -69 144 -183h-377z" />
<glyph unicode="J" d="M171 1018h394q-50 -172 -232 -240q-23 -8 -53 -16v-85q111 -136 348 -391q318 -341 412 -384l95 15q-146 154 -375 500q-192 290 -223 361q159 89 249 240h345v159h-289q0 12 0 11q0 101 -67 171h356v159h-960v-159h260q119 -69 143 -182h-403v-159z" />
<glyph unicode="K" d="M153 1039h493q-1 -10 -2 -19q-67 -239 -399 -239h-62v-4q601 -783 604 -783h198v8l-521 675q8 0 8 4q71 0 239 96q165 128 186 262h239v158h-246l-3 20q-30 91 -78 140h327v157h-983v-157h351q20 -9 36 -18q75 -55 101 -142h-488v-158z" />
<glyph unicode="L" d="M144 1052h552q-1 -10 -1 -8q-1 -74 -64 -140q-100 -106 -317 -106q-56 0 -119 7v-67l1 -74l536 -666h204v30l-514 660v10q13 -1 26 -1q89 0 184 35q220 82 262 317v3h170l90 142h-267q-24 119 -72 175h251l90 142h-920l-90 -142h253q51 -3 122 -35q111 -50 152 -140h-439 z" />
<glyph unicode="M" d="M186 1008h615q-32 -58 -93 -106q-145 -114 -364 -131l-149 -11l677 -773l116 96l-493 562q181 41 309 142q122 97 161 221h169v148h-154q-14 116 -102 211h256v148h-948v-148h434q179 -76 206 -211h-640v-148z" />
<glyph unicode="N" d="M196 1012h596q-31 -57 -90 -105q-140 -113 -353 -130l-145 -11l657 -765l112 95l-477 556q175 41 299 141q118 96 156 219h111l53 146h-149q-14 115 -99 210h195l53 146h-866l-53 -146h420q174 -76 201 -210h-568z" />
<glyph unicode="O" d="M124 1016h554q-6 -33 -16 -60q-24 -68 -79 -117q-55 -50 -143 -79q-89 -29 -217 -33l-1 -9q94 -162 174 -286q79 -124 143 -214q65 -90 117 -151q51 -60 90 -95q24 -22 45 -38t42 -26q21 -11 43 -16t46 -5q48 0 119 20q71 19 163 59l-21 56q-31 -11 -57 -16 q-26 -6 -55 -6q-27 0 -51 6q-25 5 -49 18q-25 12 -51 32t-56 50q-38 37 -80 86q-43 50 -94 120q-52 70 -113 162q-62 93 -137 215q101 25 182 68q82 42 140 102t89 136q1 2 8 21h216l61 154h-254q-1 94 -37 158q-10 16 -23 34h253l61 153h-951l-61 -153h461q11 -9 12 -10 q72 -64 86 -182h-498z" />
<glyph unicode="P" d="M117 1021h444q-89 -175 -383 -312h-1v-73l260 -456q192 -335 350 -335q122 0 379 250l22 106q-207 -197 -286 -197q-73 0 -223 239l-281 447q315 145 412 331h338l44 159h-339q1 17 1 15q0 98 -48 164h342l44 159h-1031h-4v-15l-40 -144h399q76 -65 80 -179h-435z" />
<glyph unicode="Q" d="M64 959h529q-16 -64 -47 -116q-62 -103 -166 -103l-75 5q-48 0 -48 -66q0 -35 42 -39q67 -3 67 -106q0 -65 -31 -186q-32 -121 -32 -190q0 -115 66 -187q66 -71 175 -71q105 0 207 66q54 35 118 93v115q-107 -103 -175 -103q-75 0 -75 96q0 19 11 88q12 69 12 124 q0 100 -45 166q-45 67 -144 123q271 61 364 171q49 59 73 120h215l92 191h-297q-22 98 -101 180h306l92 190h-1041l-92 -190h460q66 -67 80 -180h-448z" />
<glyph unicode="R" d="M146 983h466q-73 -148 -316 -270q228 -296 616 -753l176 131q-240 238 -540 616q214 125 286 276h282l41 187h-288q-9 90 -78 158h325l41 186h-970l-41 -186h258q189 -46 229 -158h-446z" />
<glyph unicode="S" d="M135 1006h507q-14 -92 -65 -143q-67 -68 -206 -70v-116q40 -10 69 -31q55 -40 120 -177l227 -470h342v105h-177l-211 439q-39 81 -88 126t-118 64q167 22 251 109q62 64 78 164h278l39 161h-317q-18 114 -91 189h369l39 161h-1008l-38 -161h346q59 -17 96 -54 q48 -49 63 -135h-467z" />
<glyph unicode="T" d="M154 1003h575q-23 -62 -53 -98q-37 -45 -93 -71q-55 -25 -120 -25h-14q-62 3 -142 23v-164l7 -2l320 -672h219l-331 674q155 13 266 91q110 77 156 225q2 6 5 19h187v169h-180q-1 1 -1 2v1q-23 83 -88 151l-16 16h285v169h-982v-169h324q77 -21 131 -47t88 -64 q25 -27 39 -59h-582v-169z" />
<glyph unicode="U" d="M80 1017l125 187h415q-46 60 -134 94q-61 24 -102 26h-302l125 187h994l-125 -187h-220q28 -49 45 -120h298l-125 -187h-165q-43 -190 -213 -279q-108 -56 -243 -63l503 -615v-62h-243l-559 660l-1 172l28 -2q61 -7 115 -7q193 0 289 79q60 49 74 117h-579zM173 1067h541 l-3 -36q2 -5 -8 -40q-14 -49 -47 -90q-105 -129 -360 -129q-44 0 -93 4l1 -100l532 -629h166l-518 635v44l26 -2h15q128 0 232 49q171 80 206 271l3 22l22 1h160l58 88h-245l-5 19q-22 109 -66 158l-38 41h298l58 88h-875l-58 -88h210q62 -2 141 -38q116 -53 161 -145 l17 -35h-473z" />
<glyph unicode="V" d="M157 1010v202h459q-25 54 -74 91q-12 6 -27 13h-358v202h998v-202h-288q28 -43 47 -102l1 -2h240v-202h-234q-31 -128 -185 -248l-3 -2q-132 -75 -206 -91l482 -626v-41h-216q-14 0 -167 198q-146 190 -435 567l-5 7v38h85q292 0 356 198h-470zM208 1060h478l-3 -28 q-1 -12 -2 -19l-1 -3q-69 -249 -409 -249h-12q489 -638 546 -709h134l-509 659h34v4h26q61 0 216 88q150 117 169 236l3 21h226v101h-233l-6 40q-27 80 -68 122l-43 43h350v101h-896v-101h318l5 -2q21 -9 36 -17l3 -2q80 -59 107 -151l10 -33h-479v-101z" />
<glyph unicode="W" d="M115 947h422q-69 -104 -272 -104h-123v-92l14 -18q276 -360 412 -536q68 -89 104 -135q37 -48 49 -58q15 -12 39 -12h246v96l-429 556q60 23 146 72l4 3l3 2q139 108 181 226h233v275h-240q-3 8 -6 15h246v275h-1029v-275h372l12 -6q5 -4 10 -9h-394v-275zM181 1013v144 h446q-24 79 -93 130q-14 7 -33 15h-320v144h897v-144h-298q44 -44 71 -127l3 -18h224v-144h-217q-20 -123 -171 -240q-153 -88 -218 -88q0 -3 -7 -3l475 -617v-7h-180q-3 0 -552 715v4h57q304 0 364 218q1 7 3 18h-451z" />
<glyph unicode="X" d="M164 1339v2q143 101 168 115v2h-2q-149 -82 -155 -82l-2 4v2q20 16 93 60v2h-4q-25 -17 -81 -45l-4 6q7 8 30 19v2h-2q-14 -9 -20 -9q-4 0 -4 4q0 2 43 32q-33 -18 -36 -18l-1 4v3l35 29l-26 -15h-2q-4 0 -4 4v3q17 23 21 31h-2q-6 -4 -9 -4l-2 4q0 9 4 9l-2 3v2 q4 7 11 7q4 -4 4 -7q13 7 17 7l2 -4v-3q-17 -23 -21 -30h2q68 37 71 37l2 -4v-3l-34 -27h2q61 34 64 34l4 -5q-14 -13 -41 -29v-2h3q40 25 66 36l2 -4v-1q-10 -12 -26 -18v-2h2l45 25h2q4 -1 4 -4v-1q-10 -11 -89 -59v-2h2l120 66h2q4 -1 4 -4v-1q-17 -16 -171 -119v-2h4 q210 118 233 126l2 -4v-1q-6 -8 -124 -77v-2h3q1 2 151 84h2q4 -1 4 -4v-1q-1 -3 -181 -128q52 27 245 133h2q3 -1 3 -4v-1q-9 -11 -160 -103v-2h4q183 103 203 110l2 -4v-1q-6 -8 -143 -91v-2h4q173 98 181 98l2 -4v-1q-16 -15 -183 -127v-1h4q223 125 246 133l2 -4v-1 q-4 -7 -88 -54v-1h4q103 60 113 60l1 -4v-1q-43 -31 -152 -95v-1h2q177 97 190 101l2 -4v-1q-24 -19 -209 -137v-2h2l263 144h4q4 -1 4 -4v-1q-188 -119 -200 -123v-2h4q9 7 235 130h2q4 -1 4 -4v-1q-18 -15 -134 -80v-2h4q153 87 162 87l2 -4v-1q-121 -79 -252 -159v-1h3 q297 165 306 165l1 -4v-1q-10 -11 -252 -155v-2h2q289 159 301 162q2 -3 2 -7q13 7 19 7q2 -3 2 -5q9 5 15 5l2 -4v-1q-47 -32 -100 -61v-2h4q97 57 105 57q4 0 4 -3v-2q-153 -105 -162 -108v-2h4q140 80 149 80l1 -4v-2q-5 -7 -105 -71v-1h4q0 1 88 49h2q4 0 4 -3v-4 q-82 -70 -83 -73h2q56 33 70 36q3 -1 3 -4q-13 -16 -35 -39v-2q19 11 24 11q4 0 4 -3q-3 -13 -8 -20l2 -9q-6 -3 -11 -3l-2 3q0 9 6 18h-2q-36 -21 -44 -21l-1 3v2l37 41h-2q-77 -44 -88 -46l-2 3v2q0 1 87 76h-2l-149 -81h-4q-4 0 -4 3v2q69 49 104 69v2h-2 q-128 -72 -145 -76l-2 3v2q5 6 158 107v1h-1q-204 -112 -213 -113q-4 0 -4 3q-17 -8 -17 -11l4 -5v-2q-60 -42 -74 -48v-2h4q53 33 79 43l2 -3v-2q-17 -16 -72 -48v-2h2q73 41 79 41l2 -4v-1q-4 -7 -194 -107l-1 3v4q68 48 73 48v2h-4q-52 -32 -75 -41l-2 3v4q60 42 73 48v2 h-3q-69 -41 -78 -41l-1 3v2l177 111q-5 3 -8 3q-173 -95 -185 -98q0 4 -9 11v2q32 23 262 160v2h-4q-10 -8 -271 -150h-4q-4 0 -4 4v1q170 109 251 157v2h-2q-266 -146 -271 -146l-2 3v2q11 11 128 77v2h-2q-135 -75 -141 -75l-2 3v2q18 15 196 121v2h-4 q-206 -116 -215 -116l-2 4v2q195 130 213 138v2h-2l-241 -131h-3q-4 0 -4 3v2q13 11 147 91v1h-2q-155 -85 -168 -89q-4 0 -4 4q9 10 91 55v2h-4q-94 -55 -104 -55l-1 3v2l180 126h-2l-237 -129h-4q-3 0 -3 3v2q0 3 141 89v2h-4q0 -2 -173 -96h-4q-4 0 -4 3v2l159 103 q-203 -110 -206 -110l-2 3v4q164 115 181 124v2h-2q-211 -116 -246 -133l-4 5q16 14 120 75v2h-3q-124 -72 -132 -72q-4 0 -4 4zM168 1021v1q6 9 51 32v2h-2q-37 -21 -44 -21l-1 3v2q30 25 120 84v2h-4q-26 -18 -107 -59l-4 5q81 66 85 66v2h-2q-58 -33 -72 -38l-1 4v4 l41 46h-2q-23 -14 -30 -14q-2 3 -2 5q0 3 8 21q-2 3 -2 7q7 6 11 6l2 -4q0 -5 -6 -21q44 25 47 25l4 -6l-43 -48v-1q95 53 102 53q3 -1 3 -4q-1 -3 -83 -67h2q132 73 136 73l2 -4v-3q-115 -82 -119 -82v-2h4q12 10 166 91l3 -6q-10 -10 -54 -33v-2h4q65 39 73 39q4 -1 4 -4 q-3 -4 -168 -113h2q198 108 220 119l4 -6q-16 -14 -120 -74v-2h3q140 80 149 80q4 -1 4 -4q-16 -15 -177 -119v-2h4q124 71 231 127l2 -4v-3q-175 -123 -179 -123v-2h2q382 210 396 213q3 0 3 -3q-8 -10 -214 -130v-2h2l214 118h2q4 -1 4 -4v-2q-23 -18 -177 -106v-2h4 q170 96 177 96l2 -4v-1q-10 -11 -226 -144v-2h3q10 7 223 122h3q4 0 4 -3v-2q-139 -91 -177 -112v-2h2q176 97 188 102l2 -4v-2q-10 -11 -137 -87v-2h3q148 84 174 95l2 -4v-2q-22 -19 -196 -128v-1h4q221 124 248 135l2 -4v-2q-8 -9 -169 -103v-2h3q0 2 200 111h2 q4 -1 4 -4v-2q-15 -13 -347 -217v-1h4q392 217 412 224l2 -4v-2q-30 -21 -194 -112v-1h2q213 117 222 119l2 -4v-2q-20 -15 -371 -217q-79 -48 -86 -49v-2h1l157 85h3q4 0 4 -3v-2q-2 -4 -269 -162v-2h4q9 7 235 130h2q4 0 4 -3v-2q-18 -15 -230 -139v-2h4q148 86 198 107 q3 -1 3 -4q-17 -15 -71 -42v-2h3q14 11 40 21l4 -5l-237 -153h1q141 78 147 78q4 0 4 -3q-11 -12 -171 -116v-2h3q55 34 64 34l2 -3v-2l-96 -77q101 55 113 59l2 -4v-1l-83 -63q92 50 96 50l2 -3v-2q-75 -66 -101 -84v-1h1q107 58 119 62q4 -1 4 -4q-39 -34 -98 -76v-2h4 q75 44 111 60l2 -3v-2q0 -3 -57 -41q58 32 64 32q4 0 4 -3l-102 -86q118 64 121 64l4 -5q0 -4 -19 -12v-2h4q0 3 18 10l4 -5q-7 -8 -30 -19v-2h4q22 16 32 16l2 -4v-2q-70 -51 -76 -51v-2h2q76 43 83 43q4 -1 4 -4q-1 -3 -81 -60h2q81 45 92 48l2 -4v-2l-58 -40h1 q60 33 64 33l2 -3v-4l-94 -73h2l104 57h3q4 0 4 -3v-2q0 -4 -17 -11v-2h2q14 9 21 9q4 0 4 -3q-11 -12 -21 -14v-2h4q0 2 17 10h3q4 0 4 -3v-2q-96 -75 -100 -75v-1h4q88 51 111 60l10 -11v-1l-102 -84h2q112 62 118 62q4 0 4 -3q0 -2 -86 -64q95 51 97 51l2 -3v-4 q-66 -48 -83 -57v-2h4q81 48 91 48q3 0 3 -3l-101 -82h2q112 62 118 62l2 -3v-2q-57 -41 -70 -46v-2h4q65 39 74 39q3 0 3 -3q-4 -7 -109 -91h2q122 67 128 67l2 -3v-2q0 -2 -79 -57q85 46 90 46q4 0 4 -3l-109 -91q2 0 124 68h4q4 -1 4 -4v-2q0 -3 -17 -10v-2h4q0 4 18 9 l2 -4v-1q-86 -69 -107 -82v-2h2l120 66h2q4 -1 4 -4v-2q0 -1 -106 -83h2l117 64h4q4 -1 4 -4v-1q-11 -10 -70 -47v-1h4q68 40 75 40l2 -3v-4q-101 -77 -106 -78v-2h4q3 3 115 64h4q4 0 4 -3v-2q-86 -62 -91 -62v-2h2q96 53 102 53l2 -3v-2q-1 -2 -85 -60q91 49 96 49 q0 -1 8 -10v-2q-97 -73 -106 -77v-1h4q0 2 115 64h4q3 -1 3 -4v-2l-107 -80h2q3 2 7 2l2 -3v-2q-64 -52 -73 -52l-2 4v1l2 4q-10 0 -10 4q4 5 108 81h-2q-114 -64 -121 -64l-2 4v2q1 2 104 78q-42 -22 -115 -62h-2l-9 10v2l83 59q-88 -48 -94 -48l-2 3v2l86 62h-2 q-88 -49 -96 -49q-3 0 -3 3l105 82l-120 -64l-2 4v3l69 48q-67 -36 -79 -41l-2 4v2q2 3 108 85q-121 -66 -126 -66l-2 4v1l103 82h-2q-112 -62 -118 -62l-2 4v1q0 4 17 11v2h-2q-14 -9 -21 -9l-2 3v2q87 73 111 89v2h-3q-76 -45 -128 -69l-2 3v2q1 3 81 59l-89 -48 q-3 0 -6 5q0 1 110 91q-114 -63 -130 -68l-2 4v1q10 10 64 43v2h-2q-63 -36 -70 -36q-3 0 -3 4q14 15 107 83v2h-4q-105 -61 -118 -64q-4 0 -4 4v1q66 49 83 57v2h-4q-81 -48 -91 -48l-1 4v1q0 2 82 61h-1q-83 -46 -93 -48q-3 0 -3 3q0 2 103 86h-2q-114 -64 -120 -64 q0 4 -8 12q2 4 100 78q-2 0 -111 -60h-2q-4 0 -4 4v1q11 12 21 15v1h-4q0 -3 -22 -12l-4 5q0 4 19 13v1h-2q-14 -8 -21 -8q-4 0 -4 3q1 2 98 77h-2q-104 -59 -111 -59l-2 3v2q33 26 59 39v2h-2q-61 -34 -64 -34l-2 4v3l83 61q-15 -7 -93 -50h-1q-4 0 -4 4v2q0 2 73 53h-2 q-75 -43 -82 -43l-2 4v2q0 3 28 17v2h-4q-19 -14 -28 -14q-4 0 -4 3q8 11 15 11v2h-2q-11 -7 -17 -7q-3 0 -3 3q1 3 101 86h-2q-104 -59 -118 -63l-2 4v2q11 10 56 37v2h-2l-58 -32h-2q-4 0 -4 3v2l93 75h-2l-104 -57h-2q-3 0 -3 4v1q0 2 98 84h-2q-107 -59 -115 -61 q-4 0 -4 4v2q68 51 85 60v2h-2q-89 -50 -96 -50l-2 4v2l94 74h-2q-101 -57 -109 -57l-2 4v2l168 113h-2q-174 -96 -181 -96l-2 4v2q11 10 237 151v2h-3q-3 -3 -245 -135h-4q-4 0 -4 3v2q10 9 64 37v2h-3q-57 -34 -66 -36l-2 4v2q15 14 226 137v1h-4q-224 -125 -234 -126 l-1 4v2q12 11 265 160v1h-2q-224 -122 -277 -149l-1 4v1q8 10 195 116q232 137 255 148v1h-2q-315 -172 -320 -172l-2 3v2q12 11 194 112v2h-2l-121 -66h-2q-3 0 -3 4v1q97 65 340 214v2h-1l-268 -146h-2q-3 0 -3 3v2q17 15 173 105v2h-4q-75 -44 -147 -80l-2 3v4 q188 124 192 124v2h-3q-174 -98 -208 -112q-3 0 -3 4q8 10 131 83v2h-1q-155 -85 -168 -89q-4 0 -4 4q8 9 181 115v2h-4q-215 -121 -224 -121q-4 0 -4 4q8 9 221 140v2h-2q-266 -146 -271 -146q-4 0 -4 4q17 16 173 105v1h-2q-199 -110 -207 -110q-4 0 -4 4q18 15 219 131v2 h-2q-234 -128 -256 -139l-4 6q14 11 183 128q-2 0 -245 -134h-2q-4 0 -4 4v2q17 16 177 119v2h-4q-210 -119 -233 -127l-2 4v2q6 7 124 76v2h-3q0 -2 -151 -84h-2q-4 0 -4 4v2q8 9 172 114v1h-4q-167 -94 -173 -94zM821 994v4q297 165 305 165q4 -1 4 -4q-3 -5 -149 -103h2 q131 73 138 73l2 -3v-2q-30 -26 -117 -89v-2h2q93 52 103 55l2 -3v-4l-62 -60h2l45 25h4q4 -1 4 -4v-2l-19 -19h2l5 3h2q4 0 4 -3v-2q0 -4 -6 -16q2 -3 2 -7q-6 -4 -11 -4q-2 4 -2 6q0 3 4 10h-2q-28 -16 -34 -16q-4 0 -4 4l21 21h-2q-38 -22 -51 -25q-4 0 -4 4l66 64h-2 q-121 -68 -128 -68q-3 0 -3 4q14 15 118 90v2h-3q-3 -4 -179 -98l-4 6q5 5 152 105q-202 -111 -205 -111z" />
<glyph unicode="Y" horiz-adv-x="1284" d="M-233 1456q1 1 1 2zM-231 1460v1v-1zM-227 1413q2 0 2 -1zM-212 1519q-1 -1 1 1v-2zM-208 1450q4 1 5 9zM-208 1455q3 -3 5 4q-4 -4 -5 -4zM-207 1454q3 -2 5 3q-1 0 -1 2zM-207 1455q-1 -1 1 -1q2 1 3 1q1 5 0 4zM-206 1457l3 2l-1 1l-1 -1t-1 -2zM-206 1460q0 -4 1 -2 q1 3 2 1q0 2 -3 1zM-205 1445q9 7 6 18q-1 0 0 2q-2 -5 -4 -6q-1 1 -1 -5q0 -3 3 -1q-2 -10 -4 -8zM-205 1453q0 1 2 3q0 4 0 3q-1 -5 -2 -6zM-205 1453q0 1 2 3q0 4 0 3q-1 -5 -2 -6zM-205 1455l3 -1l-1 5zM-203 1453q1 5 0 6q-2 -2 -2 -3zM-205 1460q0 -1 2 -1q-1 1 -2 1z M-205 1463q0 -1 2 -4q-1 4 -2 4zM-204 1453q3 1 2 6q-1 -1 -1 0zM-204 1453q2 1 1 6q-1 -1 -1 0v-6zM-204 1454l1 2v3zM-204 1457q1 1 2 1l-1 1q0 1 -1 -2zM-203 1459l-1 -3zM-204 1457l2 1l-1 1q0 -1 -1 -2zM-204 1458l1 1q-1 0 -1 -1zM-204 1458l1 1q-1 0 -1 -1z M-204 1458q0 -2 1 1q-1 0 -1 -1zM-204 1459q-1 0 -1 -0.5t2 0.5h-1zM-204 1459h1v10zM-204 1461q0 -2 1 -2q-1 4 -1 5q1 0 0 -3zM-203 1456q3 0 2 -1q2 2 0 3h-1l-1 1q-1 -1 -1 -2t1 -1zM-203 1457v2v-2zM-203 1457q2 2 2 1q0 2 -2 1q-1 -2 -1 -2.5t1 0.5zM-203 1457v2 q0 -4 0 -2zM-203 1458v1v-1zM-203 1458l7 7l-7 -6v-1zM-203 1459v16v-16zM-203 1459q1 0 3 1q0 2 -3 -1zM-203 1459q1 3 0 1v-1zM-203 1459l1 2q0 -2 -1 -2zM-203 1459q7 -4 12 2zM-201 1461q2 3 0 3q1 -1 -1 -3l-1 -1q0 -2 2 1zM-203 1459q-1 1 2 3q-1 4 -2 -3zM-203 1459 v1v-1zM-203 1459v1v-1zM-203 1459l2 -4q0 -10 -1 -9q3 11 0 19q0 -1 0 2q-1 -5 -1 -8zM-203 1459l1 1q-1 1 -1 -1zM-203 1459zM-203 1459q0 1 1 3q-1 1 -1 -3zM-203 1459v16v-16zM-203 1459q4 1 4 9zM-203 1459q2 -1 1 6zM-203 1459q-1 1 1 3q0 4 -1 -3zM-203 1459z M-203 1459l1 1q-1 1 -1 -1zM-203 1459v1v-1zM-203 1459q0 2 0 1v-1zM-203 1459q0 1 1 3q-1 1 -1 -3zM-203 1459l2 -4q0 -10 -1 -9q3 11 0 19v2q-1 -5 -1 -8zM-203 1459q2 -1 1 6zM-203 1458q0 -2 1 -4zM-99 1961h1h-1zM-25 1718q0 1 1 1zM-21 1799q-1 -1 7 0q-6 -4 -3 -6h3 q2 -1 3 -1q-1 -1 -1 -2q-2 -2 -3 -4q-1 7 -2 5q0 -6 -1 -3q-3 -5 -2 -1q1 8 -1 12zM-15 1784l2 1v-1q-3 -2 0 -2v-1q-1 -4 -2 3zM-8 1947l1 1q0 -1 -1 -1zM189 1143q2 6 3 2q1 -3 0 -10l3 6l-1 -11q1 2 5 -1q3 -2 6 2l-1 10l4 6q3 3 4 -4q-1 -1 -2 -15l2 5l-2 -18q2 14 5 13 l4 -1l-1 -4q2 -4 2 2q-1 8 1 8q1 -1 0 -11v-15q-1 0 8 5q5 2 7 -6q5 4 11 16q2 0 1 -8q-1 -6 1 -2q-1 -5 -1 -19q0 2 3 4q2 1 1 10q8 -6 14 -2q-4 -3 -2 -18q5 18 11 13v11v12q3 6 3 5q-1 -30 2 -30q-1 -10 -4 -8q-2 1 -2 -8q-2 -11 -5 -12q-4 -1 -4 6q-3 -8 -1 -9t1 -8 q1 0 4 5t5 6q2 14 2 15q3 10 4 0l1 -13l-2 -4q1 -3 3 0q2 4 3 4q0 -12 -3 -11q-2 2 -3 -4v-15q2 -2 4 7q1 7 3 4l-1 -8l3 5q1 20 -2 18q2 12 3 10q2 -4 3 -3q1 5 0 5t0 5q0 9 5 13q-1 0 1 -21q-1 -2 -2 -1q-1 0 -1 5q-2 -7 -2 -18t-1 -15q1 -4 3 1l2 10q-1 1 0 7q1 7 1 9 q4 16 4 0q0 -21 2 -19q1 9 4 25q4 13 3 25q3 8 4 6q-1 -6 0 -12q0 -5 -2 -11l2 -1l-4 -16q1 -5 2 -14q2 -8 2 -12q1 3 2 9q0 6 1 8q-2 -14 1 -13q-3 10 4 22q1 0 2 -7q1 -6 1 -9l-4 -12q2 6 2 2q0 -5 1 -3q0 3 2 14q2 9 2 15q2 2 2 -2q1 -4 1 -3l-3 -8q2 1 2 -9q-1 -10 1 -7 l2 10q1 -4 -1 -10q0 -3 4 8v-7q0 1 1 5q2 4 2 5q2 5 2 -4q0 -7 -3 8q0 3 4 14q-1 -11 1 -8l4 5q0 -3 1 -7q0 -5 1 -6l1 12q-1 -13 2 -7q3 7 3 4q-3 -13 -1 -20q0 10 3 19q2 10 2 15q2 -4 0 -15q-2 -15 -2 -20q1 7 3 3q1 -4 3 5q-1 1 2 19q-4 2 1 -14q6 9 2 21q1 -2 3 3 q3 4 3 -2q0 -5 -2 -7t-1 -5q2 -1 4 13q2 15 4 17q-2 13 5 31q-3 4 -2 -20l2 2q0 -10 -4 -25q-3 -14 -3 -22l3 6q-3 -14 -2 -20q1 8 3 7l2 -1q1 6 0 4t-1 2q1 0 4 11q2 7 4 3q-2 -5 -1 -12q0 -8 -1 -10q1 -2 1 4q1 6 2 3v-7q17 -6 27 24q1 -6 7 -21q-3 8 2 13l1 -13 q2 -7 9 12v-10q1 -5 2 1l2 9v-10l1 9q2 4 4 2q1 -4 0 -14q2 6 1 10q3 -15 12 -5q-1 4 0 18q1 8 1 5q0 -4 2 1l-2 -16q2 -12 8 -11q9 2 11 1l2 9q1 -9 6 -7t7 -1q-2 25 5 25q2 7 1 -5q-1 -17 0 -21q3 9 5 7v-2q4 13 6 4v-1q7 -7 4 -9q0 7 3 8q2 2 3 7v-2v-3l1 10l2 -6 q-3 -12 -2 -11q1 -4 2 3q1 10 2 12t2 -7q0 -3 -1 -1q0 2 -1 1q-1 -4 0 -5t1 -4l1 6q1 5 2 4q4 -5 4 -10q1 3 2 5l2 4q-3 6 -3 13q4 4 4 -1l-1 -3q3 8 3 10l1 -15q1 5 6 10q-2 -26 -1 -27l4 11q2 1 1 -8q3 -4 6 11q4 14 5 9q-2 -12 0 -18q1 6 2 7q0 2 -1 -2t-2 2l4 8 q0 -17 6 -17q8 -1 10 -6q0 9 2 9t3 1q-1 -9 1 -6q3 3 3 -1v16q2 -4 5 6q4 9 4 -1q1 -5 -3 -15q1 -9 5 -2q4 6 4 -4q3 21 4 23q4 -20 4 -19q3 5 4 2q0 -2 -2 -7q2 -4 8 9q1 -8 4 -9q4 -3 5 -6q1 8 4 5q1 -2 2 9v-6q6 20 6 19l-2 -13q-1 -9 2 -9q2 0 2 -3q0 6 1 5q1 0 2 5l2 4 q1 1 2 5q0 2 2 3q-5 -1 -1 -14q1 -6 5 0q-1 0 0 4v-4q2 2 3 2v-1l-2 -1q0 -1 1 -2q0 -1 1 0q1 -1 1 -3l-1 -10q1 -1 3 6l3 9q5 -13 16 3q1 3 0 -2l4 4q-3 -6 3 -9q1 9 0 9q2 -8 7 -3q2 -4 5 -9q0 -2 1 0q5 -8 3 -5q-5 1 -22 -4q8 2 9 -8l-11 4q-6 1 -4 -6q0 1 4 -13l-7 5 q-5 1 -2 -3l6 -8l-8 4l6 -7q1 -5 -3 -6q-5 0 -11 7q1 -6 6 -7q-14 4 -19 -15q4 0 13 -10q-5 7 1 -9l-10 12q-11 5 -20 -4q-12 -15 -14 -16l2 -9q-8 4 -15 -3q-7 -9 -12 -9q4 -3 7 -13t0 -12q1 -8 -5 2q-9 14 -13 16q1 -10 -5 -11l-1 2q1 -16 -8 -11v1q-1 0 -7 2q-4 2 -5 0 q2 -6 -2 -10q-3 -4 -2 -9l-1 1q0 2 -2 3l4 -10l-8 2q-1 14 -1 12q-5 2 -3 -5q4 -9 4 -11q-1 -6 -4 -3q-9 8 -5 6q-1 3 2 2l2 -1q0 5 -2 5q-3 0 -4 2l1 -6q0 -5 -2 -5q-1 0 -3 -1t-3 -1q-4 -1 -6 6q0 -3 -2 -7q-2 -3 -2 -6q9 -2 12 -7q-5 -7 -7 -3l1 3q0 1 -4 -3q-2 -3 2 -8 l-9 11q1 -5 -6 -14q-10 23 -14 23l-1 -14q-4 -3 -7 6q-6 1 -6 -16q0 -15 -6 -12q-1 12 -9 15q2 -6 0 -7q1 -2 2 2q0 4 3 0q2 -4 1 -6l-3 -4q-10 14 -22 8q-16 -7 -22 -4q-2 6 -5 -14q-2 9 -5 5q-4 -5 -7 -2l7 -15q-5 3 -8 -9q-2 -11 -8 -2q-5 3 -1 15q-6 8 -11 -2 q-6 -9 -11 0q4 -21 3 -24l-17 14l-2 -4q0 -2 -1 -3q-1 -2 -4 1q-1 2 1 8l-5 -1l-2 -1v-1q1 3 1 4q-29 -83 -28 -83v1h1l1 -1l11 -4q-5 -5 -2 -13q4 -11 3 -15q7 2 9 -4q1 -6 9 0l-4 -5q21 2 20 3l-11 -6q-7 -5 -4 -9q3 -6 1 -8q4 5 5 2t5 0l6 -2q2 -2 5 -1t6 -2q2 -3 -4 -7 q-7 -3 -6 -1q-3 -7 6 -11q-1 2 3 3q-2 -2 -2 -3q3 -2 4 -3q-2 -1 -1 -1l-4 4q0 -2 2 -5q-1 -1 0 -1q1 -3 0 -5l-8 -5q1 -2 8 -2q7 -1 9 1q0 -21 25 -31q4 0 -2 -1q1 -1 7 -2q4 -1 1 -4q3 0 1 -4q-3 -6 -2 -9q7 6 6 6q-3 -9 8 -16q12 -7 12 -15q-1 1 -9 -3q18 -10 31 -9 q-9 -5 -10 -5q7 -11 18 -7q1 4 -1 1q-4 -3 -4 -1q3 6 9 7q7 0 7 -4l-1 -2q2 -2 6 -4q4 -1 6 -3q-2 -4 -4 -3t-4 -1q-7 -7 -4 -14q4 -9 4 -8q8 3 10 4q3 -1 0 -5q-4 -4 -3 -5l32 7q-2 1 -7 -6q-5 -6 -9 -6q3 -3 36 0q0 1 13 -11q-3 -3 -3 -2q-1 3 -4 1l-4 -11q-3 3 -8 -3 q-6 -8 -9 -8q5 -1 14 -25q5 9 12 6t13 2q-6 4 -7 -18q-5 2 20 -22l-2 -1q33 -14 29 -15q-6 -5 -7 -5q0 -5 8 0q7 6 7 -2l-7 -4q4 0 7 -7q2 -6 10 -5q-2 -2 -8 -4q19 -8 22 -7q-5 -7 -11 -7q0 -5 7 -3q8 3 8 -2q0 -1 -1 -5t-2 -3q4 1 9 -2q7 -4 8 -4q-2 -2 -4 -14 q55 -60 77 -69q-4 -8 -9 -8q-6 0 -8 -5q5 7 8 3q6 -7 9 -8l-1 -2q2 0 3 -5q1 -4 4 -4l2 3q5 1 4 -8t6 -2l-4 -11q7 5 8 -1q1 -5 7 -3l-2 -1q1 -6 11 -5q9 0 7 -6q14 -6 23 4q-3 -7 -11 -13q69 -35 71 -35q0 -1 -5 -6q8 2 18 -11q8 -11 20 -1l9 8q0 -3 -2 -10q-2 -6 -2 -8 q3 2 9 0t9 2q1 3 -5 -8q2 -3 11 -1q9 3 11 0l-4 -4q30 -60 63 -60q9 0 19 5q5 1 3 -7q-3 -9 -1 -9q11 3 42 -9q9 -4 17 -4q14 0 25 11q12 3 21 23q6 15 6 18h-13q-45 0 -89 55q-27 1 -40 19q-26 12 -64 55q-40 45 -64 58q-1 -10 -11 -9l2 4l-9 -4q-3 2 1 6t7 3 q-34 28 -49 47q-5 -4 -10 -1q-4 4 -9 -1q0 1 4 4q-12 5 -14 9q-3 5 -2 22q-18 30 -58 77q-42 49 -59 75q-10 13 -63 74q-40 46 -64 77q-12 -2 -22 6q-11 8 -21 8l5 3q-8 2 -7 9v9q1 6 1 11q-2 -2 -6 -2q-2 1 -7 -4q-6 -2 -1 8q6 11 2 12q-6 -6 -3 -1q-10 3 -5 6q11 7 10 21 q0 1 -3 5q2 5 14 4q11 -1 14 9l1 -5q75 36 92 53q5 5 30 9q22 5 30 17q1 2 -1 6t-1 6q3 2 4 -3q2 -5 3 -5q-1 -4 34 22l-2 12q12 -2 24 14q13 17 22 17q-10 8 -6 14q7 12 7 11q5 3 9 -6q9 16 26 26q1 3 0 13q-1 7 3 10q-6 2 20 22q-8 4 -10 13t5 13l13 -11q1 3 13 44 q9 31 6 51q1 1 2 5q0 -3 -1 -9q8 10 9 13l-2 -14q1 -4 3 4t3 5q1 -1 1 -4q1 -4 0 -4q1 4 4 6q3 3 4 3q0 -3 2 -13q31 -3 43 8q1 -9 -1 -13t-2 -9q0 8 2 8q4 -1 5 0v-2q1 1 2 -2q2 -2 3 0v4q1 4 3 -4q1 -7 3 3l1 -11q1 9 3 5q1 -3 3 3v-2q1 -4 5 4q3 6 3 -1q7 5 9 19 q0 -7 -2 -18q33 17 34 18l-1 -8q3 7 10 1q5 -5 8 11l3 12v-9q1 -7 1 -9q1 4 4 5q2 2 3 8q0 3 -1 -10q1 -2 5 6q3 6 5 4l-2 -5q26 -46 43 -14q2 2 1 -6v-9q6 9 19 5q12 -5 19 14q9 8 15 46q-5 -3 -11 -3q-19 0 -45 31q-18 -6 -22 -1q-11 0 -39 14q-24 13 -39 7q1 -8 -3 -14v4 l-3 -9q-1 -1 0 6q0 6 2 7q-35 3 -31 1q-1 -7 -3 -7q-3 0 -4 -8l1 6q-6 -5 -8 -3q-2 1 -5 15q-16 9 -41 10q-32 2 -41 4h-2h-1q-9 14 -21 21q2 19 -7 33q-22 7 -30 5q-2 2 4 14q-2 3 -3 10q-2 8 -4 11q-4 11 -16 9l6 6q-30 5 -32 21q-1 0 -12 -2q-6 -1 -8 -8q-12 5 -2 10 l11 7q-17 21 -59 39q1 7 -3 11l-1 1l-1 1v8q1 -5 5 6q3 9 3 -2q2 -4 -2 -14q0 -9 4 -3q4 7 5 -4q2 22 3 24l4 -20q4 6 4 3q0 -2 -2 -7q3 -4 9 8q0 -7 3 -9q4 -2 5 -5q2 8 4 5q2 -2 3 9v-6l5 19l-1 -13q-1 -10 1 -9q2 0 2 -3q0 5 1 5q2 -1 2 4l2 5q2 1 2 4q1 3 3 4 q-5 -2 -1 -14q1 -6 5 -1q-1 0 0 4v-3q1 2 2 2v-1l-2 -2q0 -1 2 -1q1 -1 1 -3l-1 -11q1 0 3 6q3 6 3 10q6 -13 16 3q1 3 0 -2q4 4 4 3q-3 -5 3 -8l1 9q1 -9 6 -3q6 6 8 1l-2 -10q9 10 13 21q-2 -10 -2 -11q5 0 8 12q2 -7 -2 -5q-1 6 1 12t4 4l-1 -3q2 0 3 3q2 3 3 3 q1 -3 0 -5q-1 -1 -1 -4q0 -11 2 -12q4 -3 4 -2l2 11q1 3 1 -3t1 -6l8 32v-9q0 -9 -2 -13q2 1 12 31q0 1 8 4q0 -4 -1 -3q-1 0 -1 -3l1 -10q-2 -1 -2 -9q0 -11 -1 -13q2 4 11 -5q0 10 3 14t4 12q-3 -2 2 -18q-2 -3 12 3v-4q15 19 14 14l-2 -9q2 -3 3 7q2 10 3 4l-1 -8 q1 3 4 0q2 -2 5 5q0 -3 -2 -9q9 10 9 13l-2 -14q1 -4 4 4q2 7 3 5q0 -1 1 -5v-4q1 5 3 7q4 2 4 3q0 -3 2 -14q32 -2 44 9q0 -10 -2 -14q-2 -3 -2 -9q1 9 2 8q4 -1 6 1v-2q1 1 2 -2t2 -1v4q2 5 3 -4q2 -6 3 4l1 -11q2 8 3 5q2 -4 3 3v-3q1 -4 5 4q4 7 4 0q6 5 8 18 q0 -6 -2 -17q34 16 35 18l-1 -8q3 6 9 0q5 -4 9 12l2 12q1 -3 1 -9v-9q1 3 4 5t3 7q0 2 -1 -10q2 -1 5 6q4 7 5 5l-1 -5q25 -47 42 -14q2 2 2 -7q-1 -9 0 -8q6 9 19 4q12 -4 19 14q9 8 14 47q-5 -3 -12 -3q-18 0 -44 30q-17 -6 -22 0q-11 0 -38 14q-25 13 -40 7q2 -8 -2 -14 v4l-3 -9q-2 -1 -1 5t2 7q-35 4 -30 2q-1 -7 -4 -7q-3 -1 -3 -8v6q-5 -5 -7 -4q-2 2 -6 16q-15 8 -41 10q-32 2 -41 4q-15 0 -42 -5q-30 -6 -43 -6q-3 -12 -9 -17t-9 -13l1 6q-3 -5 -5 -1q0 1 -2 6q-2 4 -3 7q0 -3 -2 -6q-1 -2 -1 -9q-1 -6 -2 4q-1 12 -3 9q-1 -9 -1 -4 q-4 -7 -3 0q1 14 -3 21q-4 -1 -10 -4q-7 -3 -10 -4q-12 -4 -19 2q1 0 0 -5q0 -5 -1 -6q0 12 -2 7q-3 -7 -4 -3q0 2 2 7q-2 5 -7 3q-5 -1 -8 4q-3 -4 -7 1q-5 4 -7 -1q0 -2 -2 11q-3 -14 -8 -7q-5 8 -7 0v5q-41 -2 -43 -4q-3 -1 -12 9q-8 8 -13 2q-1 -2 -2 -6q0 -4 -1 -5 q3 -1 0 11q-3 -6 -7 -2q-7 5 -8 5q-3 -10 -3 -11q-2 9 -9 6q-8 -3 -11 3q1 -14 -2 -15l-5 -2q-1 2 0 11q-7 -3 -12 5q-9 -8 -7 -11q-1 9 -4 7q-4 -2 -5 0q0 -10 -3 -16t-5 -1l3 18q-4 -4 -17 -1q-12 3 -19 -9v11q-5 -5 -18 -6q-10 0 -17 -11q-5 10 -10 10q-9 -15 -11 -22 q-1 -1 -2 11q-1 1 -3 5q-3 3 -3 4q-4 4 -8 -7l1 10q-11 -21 -15 -9q-6 -23 -6 -22q-5 -5 -2 6l2 13q-9 4 -29 -8q-1 9 -6 7q-6 -2 -9 2q-1 -3 -6 -3q-4 -1 -6 -12v9q-13 5 -15 7q2 -1 -8 -15l1 9q-2 -3 -7 -29q-1 4 -2 4t-2 3q3 7 7 27q-1 2 -5 -6q-4 -6 -4 2q-5 6 -7 -12v5 t1 7q-4 0 -6 -6q3 0 2 -1q-5 -24 -5 -23q2 6 3 5q-1 -7 -3 -9q-2 -1 -3 6q0 5 2 12t1 10l-8 -24q1 6 2 2q1 -3 0 -11l3 6l-1 -10q2 1 5 -1q4 -3 6 1l-1 11q1 0 5 6q2 3 3 -4q-1 -1 -2 -15q2 5 3 4l-3 -17q2 14 5 13q4 -1 4 -2l-1 -3q2 -4 2 2q0 8 1 8q1 -2 1 -12 q-1 -11 0 -14q-2 -1 7 4q5 3 7 -5q6 4 11 16q2 0 1 -8q0 -6 1 -3q0 -5 -1 -18q1 2 3 4q2 1 2 10q7 -7 13 -3q-4 -2 -2 -18q5 19 11 14v11q0 5 1 11q2 6 3 6q-1 -30 1 -31q-1 -9 -4 -8q-1 2 -1 -7q-2 -11 -6 -12q-3 -2 -4 6q-2 -8 -1 -9q2 -1 1 -9q2 1 5 5q2 5 5 6q1 14 2 16 q3 10 3 0q2 -13 1 -13l-2 -4q1 -3 3 0q2 4 3 4q0 -12 -2 -11q-3 1 -4 -4l1 -16q2 -1 3 7t3 5l-1 -8l3 5q2 20 -1 18q1 12 2 10q2 -5 4 -4q1 6 0 6q-1 -1 -1 5q0 8 5 13q-1 0 1 -21q-1 -2 -2 -1q-1 0 0 4q-3 -6 -3 -17q1 -11 -1 -15q2 -4 3 1l2 10l1 6v9q4 17 4 1 q0 -21 3 -19q0 9 4 24q3 14 2 26q4 8 5 6q-2 -6 -1 -12q0 -5 -1 -12h1l-4 -16q1 -5 3 -14q1 -9 1 -12q2 3 2 9t2 7q-3 -13 1 -13q-4 10 3 23q6 0 3 -16l-3 -12q1 5 1 2q0 -5 1 -3q1 3 2 13q2 11 3 16q1 2 2 -2q0 -4 1 -3l-3 -9q1 2 1 -8q-1 -10 1 -8l2 11q1 -4 0 -11 q-1 -2 4 9l-1 -7q1 1 2 5q1 3 1 5q2 5 3 -4q0 -7 -4 8q0 3 4 13q-1 -11 2 -7q4 5 3 5q1 -4 1 -8q1 -4 1 -6l1 12q0 -13 2 -7q3 8 4 5q-3 -14 -1 -20q-1 10 2 19q3 10 3 14q1 -3 0 -15q-3 -14 -3 -19q2 6 3 3q2 -4 3 5q0 1 2 19q-3 2 1 -14q6 9 3 20q0 -1 3 4q2 4 3 -2 q0 -6 -2 -7q-2 -2 -2 -5q2 -1 4 13q3 15 5 16q-3 14 4 32q-3 4 -2 -20l2 1q1 -10 -3 -24q-4 -15 -3 -22l2 6q-2 -14 -2 -20q1 8 3 7q3 -2 3 -1q0 6 -1 3q-1 -2 0 2q0 1 3 11q3 8 4 3q-1 -4 -1 -11q0 -8 -1 -10q1 -2 2 4t2 3l-1 -7q17 -6 28 24q0 -6 6 -21q-2 7 2 13l1 -13 q2 -7 9 11v-9q1 -6 2 0q2 10 2 9l1 -9l1 9q2 4 3 1t0 -13q3 5 2 10q2 -15 11 -5q-1 3 0 17q1 8 1 6q1 -4 2 0q-1 -15 -1 -16q2 -12 8 -10q9 1 10 1q0 -1 0 1q20 -4 21 -16q12 -3 27 1q12 -9 0 -12l-8 -16q1 1 7 0q4 -2 6 8q12 -16 24 -21q-2 1 -6 -4t-4 -9q16 10 24 -3 q3 4 5 10q2 5 6 10q7 2 7 1q-14 -26 -10 -30q-6 -7 -10 -2q-2 4 -6 -5q-8 -6 -14 -3q-7 3 -5 11q-7 -5 -5 -7q3 -4 -1 -10q2 -1 9 0q6 0 11 -2q8 11 9 12q10 4 7 -6q-3 -13 -4 -12l-5 -1q0 -4 5 -4q5 1 7 -1q-6 -10 -9 -6q-4 5 -8 1l-6 -14q3 -4 8 2q6 5 7 -1l-5 -5h7 q12 15 6 18q8 8 9 4q1 -6 4 -7q5 3 3 4q-3 2 1 6q4 7 14 4q3 -3 -1 -9q-7 -9 -7 -10q-2 -1 -4 1q-1 2 2 5q-7 -2 -12 -12t-9 -11q0 -6 5 -3q7 5 8 5q-1 1 3 5q5 5 6 7q14 8 6 -5q-10 -18 -6 -20q5 7 19 14q13 7 17 18q10 2 10 -2q-5 -4 -8 -9q-2 -5 -8 -7l3 -3l-14 -8 q-2 -4 -5 -14q-2 -9 -4 -12q4 0 7 5q4 4 7 3q-4 -3 -6 -7t0 -5q0 5 7 9q6 4 10 3q2 -2 -1 -9q-2 -6 -5 -8l-11 -3q5 2 3 -1q-3 -4 0 -4q3 2 10 7q9 5 13 8q2 -1 1 -5q-2 -4 -1 -4l-9 -1q-4 3 -8 -14q-11 -4 -18 2v-5t-1 -5q0 12 -3 6q-3 -7 -3 -3q0 2 2 8q-2 4 -8 3 q-5 -2 -7 3q-3 -4 -8 1q-4 5 -6 -1q-1 -1 -3 11q-3 -13 -7 -6q-5 7 -8 -1l1 5q-41 -2 -44 -4q-3 -1 -12 9q-7 8 -13 2q-1 -1 -1 -6q0 -4 -1 -5q2 -1 0 11q-3 -6 -8 -2q-6 6 -7 6q-3 -11 -3 -12q-2 10 -10 6q-7 -3 -10 3q0 -13 -2 -15q-5 -2 -5 -1q-2 1 0 11q-7 -3 -12 4 q-10 -8 -8 -11q0 9 -3 8q-5 -3 -6 0q0 -10 -2 -16q-3 -6 -5 -2l2 19q-4 -5 -17 -2q-11 3 -18 -9v11q-5 -5 -18 -6q-11 0 -18 -11q-4 10 -10 10q-8 -15 -10 -22q-1 -1 -2 12q-1 1 -3 4l-4 4q-4 4 -7 -6l1 9q-12 -21 -16 -9q-5 -23 -5 -22q-6 -5 -3 6l3 14q-9 4 -29 -8 q-1 8 -6 6q-7 -2 -9 2q-1 -3 -6 -3q-4 -1 -7 -12l1 9q-13 5 -16 8q2 -2 -7 -16l1 10q-2 -3 -7 -29q-1 3 -2 3q-2 0 -3 3q4 7 8 27q-1 2 -6 -6q-3 -6 -4 2q-5 7 -6 -12v6q-1 4 0 7q-3 -1 -5 -6q2 -1 1 -2q-4 -23 -4 -22q2 5 3 4q-1 -7 -4 -8q-2 -2 -2 5q0 5 2 12q1 7 1 10z " />
<glyph unicode="Z" horiz-adv-x="1900" d="M1 743h287q3 -268 194 -458q192 -190 462 -193v-146h14v146q270 3 462 193q191 190 194 458h287v14h-287q-3 268 -194 458q-192 190 -462 193v146h-14v-146q-270 -3 -462 -193q-191 -190 -194 -458h-287v-14zM302 743h179q3 -189 138 -322q135 -134 325 -137v-178 q-264 3 -452 189q-187 186 -190 448zM302 757q3 262 190 448q188 186 452 189v-118h-356v-115h141q-111 -59 -177 -166q-69 -109 -71 -238h-179zM496 743h224q-33 -4 -64 -4h-46v-3q220 -284 334 -431v-7q-184 3 -315 133q-131 129 -133 312zM496 757q2 148 92 266v-95h356 v-32q-38 -105 -155 -139h-293zM605 1044q66 75 157 117h85q15 -7 27 -13q49 -36 70 -92v-12h-339zM818 663q6 0 6 3q39 0 120 40v-206zM958 106v178h1h1q95 -122 96 -122h146v6l-107 138q142 46 232 165q91 121 94 272h179q-3 -262 -190 -448q-188 -186 -452 -189zM958 482 v232q22 11 42 22q-4 -3 8 7h399q-3 -148 -93 -266q-89 -116 -228 -159zM958 1276v118q264 -3 452 -189q187 -186 190 -448h-179q-2 129 -71 238q-66 107 -177 166h141v115h-356zM1025 757q99 84 113 171h176v95q90 -119 93 -266h-382zM1073 1161h67q92 -42 157 -117h-164 l-3 15q-22 66 -57 102z" />
<glyph unicode="[" horiz-adv-x="799" d="M176 -270v1826h424v-143h-240v-1540h240v-143h-424z" />
<glyph unicode="\" horiz-adv-x="690" d="M0 1493h170l520 -1683h-170z" />
<glyph unicode="]" horiz-adv-x="799" d="M199 -127h239v1540h-239v143h424v-1826h-424v143z" />
<glyph unicode="^" horiz-adv-x="1716" d="M217 936l543 557h196l543 -557h-201l-440 395l-440 -395h-201z" />
<glyph unicode="_" horiz-adv-x="1024" d="M-20 -340h1064v-143h-1064v143z" />
<glyph unicode="`" horiz-adv-x="1024" d="M170 1638h197l282 -374h-153z" />
<glyph unicode="a" horiz-adv-x="1255" d="M123 326q0 189 126.5 285t377.5 96h258v18q0 127 -83.5 196.5t-234.5 69.5q-96 0 -187 -23t-175 -69v170q101 39 196 58.5t185 19.5q243 0 363 -126t120 -382v-639h-184v170q-63 -102 -157 -150.5t-230 -48.5q-172 0 -273.5 96.5t-101.5 258.5zM307 338 q0 -98 64.5 -155.5t175.5 -57.5q153 0 245.5 108.5t92.5 288.5v41h-183q-223 0 -309 -51t-86 -174z" />
<glyph unicode="b" horiz-adv-x="1300" d="M186 0v1556h185v-606q58 100 146.5 148.5t211.5 48.5q204 0 331.5 -162t127.5 -426t-127.5 -426t-331.5 -162q-123 0 -211.5 48.5t-146.5 148.5v-168h-185zM371 559q0 -203 83.5 -318.5t229.5 -115.5t229.5 115.5t83.5 318.5t-83.5 318.5t-229.5 115.5t-229.5 -115.5 t-83.5 -318.5z" />
<glyph unicode="c" horiz-adv-x="1126" d="M113 559q0 274 150.5 431t412.5 157q85 0 166 -17.5t157 -52.5v-172q-78 43 -156.5 64.5t-158.5 21.5q-179 0 -278 -113.5t-99 -318.5t99 -318.5t278 -113.5q80 0 158.5 21.5t156.5 64.5v-170q-77 -36 -159.5 -54t-175.5 -18q-253 0 -402 159t-149 429z" />
<glyph unicode="d" horiz-adv-x="1300" d="M113 559q0 264 127.5 426t330.5 162q124 0 212.5 -48.5t146.5 -148.5v606h184v-1556h-184v168q-58 -100 -146.5 -148.5t-212.5 -48.5q-203 0 -330.5 162t-127.5 426zM303 559q0 -203 83.5 -318.5t229.5 -115.5t230 115.5t84 318.5t-84 318.5t-230 115.5t-229.5 -115.5 t-83.5 -318.5z" />
<glyph unicode="e" horiz-adv-x="1260" d="M113 549q0 275 148.5 436.5t400.5 161.5q226 0 357.5 -145.5t131.5 -395.5v-90h-846q12 -190 114.5 -289.5t285.5 -99.5q106 0 205.5 26t197.5 78v-174q-99 -42 -203 -64t-211 -22q-268 0 -424.5 156t-156.5 422zM311 659l656 1q-2 151 -84.5 241t-218.5 90 q-154 0 -246.5 -87t-106.5 -245z" />
<glyph unicode="f" horiz-adv-x="721" d="M47 977v143h176v78q0 187 87 272.5t276 85.5h174v-153h-176q-99 0 -137.5 -40t-38.5 -144v-99h303v-143h-303v-977h-185v977h-176z" />
<glyph unicode="g" horiz-adv-x="1300" d="M113 573q0 260 126 417t332 157q124 0 213 -49t146 -148v170h184v-981q0 -286 -127 -425.5t-389 -139.5q-97 0 -183 14.5t-167 44.5v179q81 -44 160 -65t161 -21q181 0 271 94.5t90 285.5v91q-57 -99 -146 -148t-213 -49q-206 0 -332 157t-126 416zM303 573 q0 -199 82.5 -309t230.5 -110q149 0 231.5 110t82.5 309q0 200 -82.5 310t-231.5 110q-148 0 -230.5 -110t-82.5 -310z" />
<glyph unicode="h" horiz-adv-x="1298" d="M186 0v1556h185v-610q66 101 155.5 151t206.5 50q193 0 292 -119.5t99 -351.5v-676h-184v670q0 159 -62 238t-186 79q-149 0 -235 -95t-86 -259v-633h-185z" />
<glyph unicode="i" horiz-adv-x="569" d="M193 0v1120h184v-1120h-184zM193 1323v233h184v-233h-184z" />
<glyph unicode="j" horiz-adv-x="569" d="M-37 -270h49q105 0 143 48.5t38 201.5v1140h184v-1140q0 -214 -81.5 -310t-262.5 -96h-70v156zM193 1323v233h184v-233h-184z" />
<glyph unicode="k" horiz-adv-x="1186" d="M186 0v1556h185v-919l549 483h235l-594 -524l619 -596h-240l-569 547v-547h-185z" />
<glyph unicode="l" horiz-adv-x="569" d="M193 0v1556h184v-1556h-184z" />
<glyph unicode="m" horiz-adv-x="1995" d="M186 0v1120h185v-174q63 103 151 152t209 49q122 0 207.5 -62t126.5 -180q69 124 165 183t226 59q175 0 270 -122.5t95 -348.5v-676h-185v670q0 161 -57 239t-174 78q-143 0 -226 -95t-83 -259v-633h-185v670q0 162 -57 239.5t-176 77.5q-141 0 -224 -95.5t-83 -258.5 v-633h-185z" />
<glyph unicode="n" horiz-adv-x="1298" d="M186 0v1120h185v-174q66 101 155.5 151t206.5 50q193 0 292 -119.5t99 -351.5v-676h-184v670q0 159 -62 238t-186 79q-149 0 -235 -95t-86 -259v-633h-185z" />
<glyph unicode="o" horiz-adv-x="1253" d="M113 559q0 276 136.5 432t377.5 156q240 0 377 -156t137 -432q0 -275 -137 -431.5t-377 -156.5q-241 0 -377.5 156.5t-136.5 431.5zM307 559q0 -201 85.5 -316.5t234.5 -115.5q147 0 233 116t86 316q0 199 -86 315.5t-233 116.5q-148 0 -234 -115.5t-86 -316.5z" />
<glyph unicode="p" horiz-adv-x="1300" d="M186 -426v1546h185v-170q58 100 146.5 148.5t211.5 48.5q204 0 331.5 -162t127.5 -426t-127.5 -426t-331.5 -162q-123 0 -211.5 48.5t-146.5 148.5v-594h-185zM371 559q0 -203 83.5 -318.5t229.5 -115.5t229.5 115.5t83.5 318.5t-83.5 318.5t-229.5 115.5t-229.5 -115.5 t-83.5 -318.5z" />
<glyph unicode="q" horiz-adv-x="1300" d="M113 559q0 264 127.5 426t330.5 162q124 0 212.5 -48.5t146.5 -148.5v170h184v-1546h-184v594q-58 -100 -146.5 -148.5t-212.5 -48.5q-203 0 -330.5 162t-127.5 426zM303 559q0 -203 83.5 -318.5t229.5 -115.5t230 115.5t84 318.5t-84 318.5t-230 115.5t-229.5 -115.5 t-83.5 -318.5z" />
<glyph unicode="r" horiz-adv-x="842" d="M186 0v1120h185v-174q58 102 151 151.5t226 49.5q19 0 42 -2.5t51 -7.5l1 -189q-31 18 -67.5 26.5t-80.5 8.5q-156 0 -239.5 -101.5t-83.5 -291.5v-590h-185z" />
<glyph unicode="s" horiz-adv-x="1067" d="M111 41v190q102 -53 201 -79.5t196 -26.5q130 0 200 44.5t70 125.5q0 75 -50.5 115t-221.5 77l-64 15q-171 36 -247 110.5t-76 204.5q0 158 112 244t318 86q102 0 192 -15t166 -45v-174q-78 40 -162 60t-174 20q-137 0 -205.5 -42t-68.5 -126q0 -64 49 -100.5t197 -69.5 l63 -14q196 -42 278.5 -118.5t82.5 -213.5q0 -156 -123.5 -247t-339.5 -91q-90 0 -187.5 17.5t-205.5 52.5z" />
<glyph unicode="t" horiz-adv-x="803" d="M55 977v143h135v318h185v-318h379v-143h-379v-608q0 -137 37.5 -176t152.5 -39h189v-154h-189q-213 0 -294 79.5t-81 289.5v608h-135z" />
<glyph unicode="u" horiz-adv-x="1298" d="M174 442v678h184v-671q0 -159 62 -238.5t186 -79.5q149 0 235.5 95t86.5 259v635h184v-1120h-184v172q-67 -102 -155.5 -151.5t-205.5 -49.5q-193 0 -293 120t-100 351z" />
<glyph unicode="v" horiz-adv-x="1212" d="M61 1120h195l350 -940l350 940h195l-420 -1120h-250z" />
<glyph unicode="w" horiz-adv-x="1675" d="M86 1120h184l230 -874l229 874h217l230 -874l229 874h184l-293 -1120h-217l-241 918l-242 -918h-217z" />
<glyph unicode="x" horiz-adv-x="1212" d="M59 0l435 586l-398 534h217l297 -399l297 399h217l-405 -545l426 -575h-217l-326 440l-326 -440h-217z" />
<glyph unicode="y" horiz-adv-x="1212" d="M61 1120h195l350 -876l350 876h195l-492 -1224q-78 -200 -152 -261t-198 -61h-147v154h108q76 0 118 36t93 170l33 84z" />
<glyph unicode="z" horiz-adv-x="1075" d="M88 0v168l692 805h-667v147h874v-168l-692 -805h692v-147h-899z" />
<glyph unicode="{" d="M256 541v143h61q143 0 196.5 57.5t53.5 206.5v240q0 221 84.5 294.5t333.5 73.5h62v-143h-68q-141 0 -184 -44t-43 -185v-248q0 -157 -45.5 -228t-155.5 -96q111 -27 156 -98t45 -227v-248q0 -141 43 -185t184 -44h68v-144h-62q-249 0 -333.5 74t-84.5 295v239 q0 151 -54 209t-196 58h-61z" />
<glyph unicode="|" horiz-adv-x="690" d="M260 -483v2048h170v-2048h-170z" />
<glyph unicode="}" d="M256 -190h70q140 0 182.5 43t42.5 186v248q0 156 45 227t156 98q-111 25 -156 96t-45 228v248q0 142 -42.5 185.5t-182.5 43.5h-70v143h63q249 0 332.5 -73.5t83.5 -294.5v-240q0 -149 54 -206.5t196 -57.5h62v-143h-62q-142 0 -196 -58t-54 -209v-239q0 -221 -83.5 -295 t-332.5 -74h-63v144z" />
<glyph unicode="~" horiz-adv-x="1716" d="M217 467v178q105 79 194.5 113.5t186.5 34.5q110 0 257 -60l15 -6q8 -3 22 -8q155 -62 249 -62q86 0 170.5 38t187.5 122v-178q-105 -79 -194.5 -113t-186.5 -34q-110 0 -256 59q-11 4 -16 6q-7 3 -22 8q-155 62 -249 62q-88 0 -174 -38.5t-184 -121.5z" />
<glyph unicode="&#xa0;" />
<glyph unicode="&#xa1;" horiz-adv-x="821" d="M309 0v655l21 357h162l20 -357v-655h-203zM309 1239v254h203v-254h-203z" />
<glyph unicode="&#xa2;" d="M172 559q0 258 132.5 411t373.5 175v287h102l1 -287q73 -4 141.5 -20.5t136.5 -47.5v-172q-74 41 -142 62t-136 24l-1 -864q70 5 138.5 26t140.5 60v-170q-65 -30 -133.5 -47.5t-145.5 -24.5v-284h-102v288q-241 20 -373.5 173.5t-132.5 410.5zM367 559q0 -185 82 -298 t229 -130v856q-147 -18 -229 -131t-82 -297z" />
<glyph unicode="&#xa3;" d="M129 0v170h236v465h-199v143h199v238q0 261 107 382.5t339 121.5q61 0 136.5 -15.5t154.5 -44.5v-182q-76 41 -144 61.5t-129 20.5q-148 0 -206 -77.5t-58 -289.5v-215h391v-143h-391v-465h557v-170h-993z" />
<glyph unicode="&#xa4;" d="M94 197l207 206q-37 62 -55.5 121t-18.5 117q0 64 19 122t57 114l-207 206l115 115l207 -207q55 39 113 57.5t122 18.5q60 0 118.5 -18t119.5 -56l207 209l114 -115l-206 -206q37 -59 55 -118.5t18 -121.5q0 -63 -19 -120.5t-59 -114.5l209 -207l-114 -113l-207 207 q-59 -40 -117 -59t-119 -19q-58 0 -118 18.5t-121 55.5l-207 -207zM383 643q0 -114 78.5 -192t191.5 -78t191 78.5t78 191.5q0 112 -77.5 189t-191.5 77q-112 0 -191 -77t-79 -189z" />
<glyph unicode="&#xa5;" d="M82 1493h190l379 -700l377 700h191l-318 -586h264v-123h-331l-84 -155v-51h415v-123h-413v-455h-201v455h-416v123h416v51l-84 155h-332v123h264z" />
<glyph unicode="&#xa6;" horiz-adv-x="690" d="M260 -350v758h170v-758h-170zM260 674v758h170v-758h-170z" />
<glyph unicode="&#xa7;" horiz-adv-x="1024" d="M92 723q0 91 46.5 162.5t137.5 120.5q-59 44 -88.5 100t-29.5 125q0 130 100 209.5t266 79.5q73 0 149.5 -14.5t155.5 -43.5v-164q-83 39 -154.5 58.5t-127.5 19.5q-97 0 -151 -40t-54 -111q0 -90 206 -205q26 -15 40 -23q211 -119 276.5 -196t65.5 -178q0 -90 -46 -160 t-139 -123q62 -52 90.5 -106.5t28.5 -118.5q0 -142 -102 -226t-275 -84q-73 0 -150 14.5t-165 43.5v164q87 -39 161 -58.5t132 -19.5q102 0 158.5 42t56.5 118q0 102 -221 225l-25 14q-214 120 -278 196.5t-64 178.5zM254 754q0 -76 69.5 -142.5t319.5 -201.5q63 45 94 90.5 t31 91.5q0 75 -71.5 143t-317.5 201q-63 -46 -94 -91t-31 -91z" />
<glyph unicode="&#xa8;" horiz-adv-x="1024" d="M215 1350v202h203v-202h-203zM606 1350v202h203v-202h-203z" />
<glyph unicode="&#xa9;" horiz-adv-x="2048" d="M283 741q0 154 54 285t163 240t240.5 164t283.5 55t283.5 -55t240.5 -164t163 -240t54 -285q0 -152 -54 -282.5t-163 -239.5t-240.5 -164t-283.5 -55t-283.5 55t-240.5 164t-163 239.5t-54 282.5zM383 741q0 -129 48 -242.5t142 -207.5t207 -141.5t244 -47.5 q132 0 245.5 47.5t207.5 141.5q93 93 139.5 206t46.5 244q0 133 -47 246.5t-139 206.5q-94 94 -207.5 141t-245.5 47q-131 0 -244 -47t-207 -141t-142 -208.5t-48 -244.5zM582 741q0 209 125.5 330t341.5 121q73 0 141 -14t133 -41v-129q-66 33 -131 49t-131 16 q-149 0 -232.5 -87.5t-83.5 -244.5q0 -159 85.5 -246t240.5 -87q64 0 125 15.5t127 49.5v-127q-67 -29 -135.5 -43t-138.5 -14q-216 0 -341.5 122t-125.5 330z" />
<glyph unicode="&#xaa;" horiz-adv-x="965" d="M115 946q0 135 95.5 204t283.5 69h182v4q0 91 -58.5 136.5t-175.5 45.5q-62 0 -130 -17t-136 -51v127q73 28 145.5 42t141.5 14q183 0 272.5 -88t89.5 -267v-448h-149v112q-44 -63 -116 -97t-165 -34q-128 0 -204 67.5t-76 180.5zM139 469v123h688v-123h-688zM262 958 q0 -64 49 -102.5t131 -38.5q104 0 169 72t65 186v29h-127q-161 0 -224 -33.5t-63 -112.5z" />
<glyph unicode="&#xab;" horiz-adv-x="1253" d="M158 559v82l469 418v-191l-301 -268l301 -268v-191zM592 559v82l469 418v-191l-301 -268l301 -268v-191z" />
<glyph unicode="&#xac;" horiz-adv-x="1716" d="M217 692v170h1282v-575h-168v405h-1114z" />
<glyph unicode="&#xad;" horiz-adv-x="739" d="M100 479v164h539v-164h-539z" />
<glyph unicode="&#xae;" horiz-adv-x="2048" d="M283 741q0 154 54 285t163 240t240.5 164t283.5 55t283.5 -55t240.5 -164t163 -240t54 -285q0 -152 -54 -282.5t-163 -239.5t-240.5 -164t-283.5 -55t-283.5 55t-240.5 164t-163 239.5t-54 282.5zM383 741q0 -129 48 -242.5t142 -207.5t207 -141.5t244 -47.5 q132 0 245.5 47.5t207.5 141.5q93 93 139.5 206t46.5 244q0 133 -47 246.5t-139 206.5q-94 94 -207.5 141t-245.5 47q-131 0 -244 -47t-207 -141t-142 -208.5t-48 -244.5zM719 338v836h285q176 0 263 -59.5t87 -180.5q0 -86 -52.5 -142t-148.5 -73q24 -8 57.5 -46.5 t79.5 -111.5l137 -223h-172l-129 209q-59 96 -95.5 121.5t-90.5 25.5h-66v-356h-155zM874 795h123q110 0 153.5 31t43.5 106q0 76 -44 107.5t-153 31.5h-123v-276z" />
<glyph unicode="&#xaf;" horiz-adv-x="1024" d="M213 1378v148h598v-148h-598z" />
<glyph unicode="&#xb0;" horiz-adv-x="1024" d="M195 1200q0 134 92 227t225 93q64 0 123 -24.5t102 -70.5q46 -45 69 -102t23 -123q0 -132 -92.5 -223.5t-226.5 -91.5q-135 0 -225 90t-90 225zM322 1200q0 -79 55 -133.5t135 -54.5t135 54.5t55 133.5t-55.5 135t-134.5 56q-80 0 -135 -55.5t-55 -135.5z" />
<glyph unicode="&#xb1;" horiz-adv-x="1716" d="M217 0v170h1282v-170h-1282zM217 727v170h557v387h168v-387h557v-170h-557v-387h-168v387h-557z" />
<glyph unicode="&#xb2;" horiz-adv-x="821" d="M94 668v110q34 31 97 87q344 305 344 399q0 66 -52 106.5t-137 40.5q-52 0 -113 -17.5t-133 -52.5v123q77 28 143.5 42t123.5 14q145 0 232 -66t87 -174q0 -139 -331 -423q-56 -48 -87 -75h424v-114h-598z" />
<glyph unicode="&#xb3;" horiz-adv-x="821" d="M98 694v121q52 -27 111.5 -40t126.5 -13q109 0 169 39.5t60 109.5q0 74 -55.5 112t-163.5 38h-86v108h94q94 0 142.5 31.5t48.5 91.5q0 58 -50 88.5t-145 30.5q-40 0 -91 -9t-132 -32v115q73 17 137 26t119 9q144 0 228.5 -59t84.5 -158q0 -69 -45 -117t-127 -66 q92 -18 142.5 -72.5t50.5 -136.5q0 -124 -95 -191t-272 -67q-57 0 -119.5 10.5t-132.5 30.5z" />
<glyph unicode="&#xb4;" horiz-adv-x="1024" d="M371 1262l280 376h199l-326 -376h-153z" />
<glyph unicode="&#xb5;" d="M174 -426v1546h184v-696q0 -145 69 -219t204 -74q148 0 222.5 84t74.5 252v653h184v-862q0 -60 17.5 -88.5t54.5 -28.5q9 0 25 5.5t44 17.5v-148q-41 -23 -77.5 -34t-71.5 -11q-69 0 -110 39t-56 119q-50 -79 -122.5 -118.5t-170.5 -39.5q-102 0 -173.5 39t-113.5 117 v-553h-184z" />
<glyph unicode="&#xb6;" d="M158 1071q0 190 130 306t345 116h448v-1690h-141v1567h-190v-1567h-142v846q-215 17 -332.5 127.5t-117.5 294.5z" />
<glyph unicode="&#xb7;" horiz-adv-x="651" d="M219 584v254h211v-254h-211z" />
<glyph unicode="&#xb8;" horiz-adv-x="1024" d="M291 -240q34 -17 71 -24.5t84 -7.5q59 0 89 24t30 70q0 30 -21.5 73.5t-66.5 104.5h119q55 -62 82 -114.5t27 -100.5q0 -89 -60 -134.5t-178 -45.5q-46 0 -89.5 6t-86.5 18v131z" />
<glyph unicode="&#xb9;" horiz-adv-x="821" d="M137 1348v116l230 39h137v-725h205v-110h-553v110h204v611z" />
<glyph unicode="&#xba;" horiz-adv-x="965" d="M96 1108q0 191 104 301.5t283 110.5t282 -110.5t103 -301.5t-103 -300.5t-282 -109.5t-283 110t-104 300zM139 469v123h688v-123h-688zM252 1108q0 -133 63.5 -213t167.5 -80q105 0 167.5 80t62.5 213q0 137 -62 217t-168 80q-105 0 -168 -80.5t-63 -216.5z" />
<glyph unicode="&#xbb;" horiz-adv-x="1253" d="M193 141v191l301 268l-301 268v191l469 -418v-82zM627 141v191l301 268l-301 268v191l469 -418v-82z" />
<glyph unicode="&#xbf;" horiz-adv-x="1087" d="M143 324q0 76 36.5 144.5t125.5 154.5l88 86q48 47 67 73.5t27 51.5q7 21 10 51t3 84v123h190v-156q0 -101 -27.5 -166t-117.5 -152l-90 -88q-58 -53 -83.5 -100t-25.5 -96q0 -89 65.5 -144t174.5 -55q78 0 168 35t186 102v-188q-94 -57 -190 -85t-199 -28 q-184 0 -296 97t-112 256zM494 1239v254h202v-254h-202z" />
<glyph unicode="&#xc5;" horiz-adv-x="1401" d="M16 0l533 1397q-61 41 -92 98.5t-31 130.5q0 115 79.5 195t194.5 80q114 0 194.5 -80.5t80.5 -194.5q0 -70 -31.5 -129t-91.5 -100l532 -1397h-210l-136 383h-673l-136 -383h-213zM428 551h545l-273 743zM549 1626q0 -63 44 -107t107 -44t107.5 44t44.5 107t-44.5 107.5 t-107.5 44.5q-64 0 -107.5 -43.5t-43.5 -108.5z" />
<glyph unicode="&#xc6;" horiz-adv-x="1995" d="M8 0l625 1493h1212v-170h-741v-442h711v-170h-711v-541h760v-170h-963v383h-528l-160 -383h-205zM442 551h459v784h-129z" />
<glyph unicode="&#xd0;" horiz-adv-x="1587" d="M10 700v144h201v649h416q433 0 636 -180.5t203 -564.5q0 -386 -203.5 -567t-635.5 -181h-416v700h-201zM414 166h243q309 0 452.5 140t143.5 442q0 300 -143.5 439.5t-452.5 139.5h-243v-483h336v-144h-336v-534z" />
<glyph unicode="&#xd7;" horiz-adv-x="1716" d="M281 184l456 457l-456 459l118 121l459 -459l459 459l119 -121l-457 -459l457 -457l-119 -121l-459 459l-459 -459z" />
<glyph unicode="&#xd8;" horiz-adv-x="1612" d="M102 18l170 201q-78 102 -117.5 234t-39.5 292q0 354 188.5 564.5t503.5 210.5q130 0 240.5 -38.5t197.5 -113.5l162 191l102 -89l-170 -198q78 -103 118 -236t40 -291q0 -353 -188 -563.5t-502 -210.5q-128 0 -238.5 37.5t-201.5 112.5l-162 -191zM328 745 q0 -112 19.5 -206t58.5 -162l718 848q-61 64 -141.5 97.5t-175.5 33.5q-220 0 -349.5 -164t-129.5 -447zM489 266q62 -64 142.5 -97.5t175.5 -33.5q220 0 348.5 164t128.5 446q0 112 -19.5 204t-58.5 163z" />
<glyph unicode="&#xde;" horiz-adv-x="1239" d="M201 0v1493h202v-264h254q251 0 379.5 -112.5t128.5 -332.5t-128.5 -333t-379.5 -113h-254v-338h-202zM403 504h254q141 0 218 73t77 207t-76.5 206.5t-218.5 72.5h-254v-559z" />
<glyph unicode="&#xdf;" horiz-adv-x="1290" d="M186 0v1137q0 200 119.5 309.5t337.5 109.5q208 0 317.5 -116t112.5 -340q-151 -8 -235 -65.5t-84 -153.5q0 -47 29 -87.5t94 -82.5l57 -37q166 -106 214 -177t48 -171q0 -172 -112.5 -263.5t-323.5 -91.5q-64 0 -132 12.5t-141 36.5v164q80 -30 150 -44.5t135 -14.5 q116 0 176 47.5t60 138.5q0 63 -29.5 105t-130.5 104l-92 55q-96 59 -139.5 126.5t-43.5 158.5q0 127 83.5 213t234.5 115q-8 103 -73.5 159t-178.5 56q-130 0 -198 -69.5t-68 -200.5v-1133h-187z" />
<glyph unicode="&#xe6;" horiz-adv-x="2011" d="M123 326q0 189 126.5 285t377.5 96h258v18q0 127 -83.5 196.5t-234.5 69.5q-96 0 -187 -23t-175 -69v170q101 39 196 58.5t185 19.5q142 0 248.5 -48t160.5 -136q74 90 180 137t238 47q226 0 358 -145.5t132 -395.5v-90h-846q12 -191 114 -291t285 -100q104 0 204 26.5 t200 79.5v-174q-100 -42 -204 -64t-210 -22q-167 0 -291 60.5t-201 179.5q-73 -120 -181 -180t-251 -60q-189 0 -294 93.5t-105 261.5zM307 338q0 -98 64.5 -155.5t175.5 -57.5q153 0 245.5 108.5t92.5 288.5v41h-183q-223 0 -309 -51t-86 -174zM1063 659l655 1 q-1 151 -83.5 241t-219.5 90q-153 0 -245.5 -87t-106.5 -245z" />
<glyph unicode="&#xf0;" horiz-adv-x="1253" d="M113 537q0 250 138 405.5t359 155.5q18 0 44 -2.5t68 -7.5l-159 180l-319 -107l-33 99l281 92l-181 204h228l127 -145l333 111l33 -97l-295 -98l164 -186q126 -143 183 -287t57 -317q0 -255 -142 -410.5t-372 -155.5q-231 0 -372.5 155.5t-141.5 410.5zM307 537 q0 -188 87 -299t233 -111q145 0 232 111t87 299q0 122 -27 216t-81 162q-50 17 -94 25t-85 8q-167 0 -259.5 -108t-92.5 -303z" />
<glyph unicode="&#xf7;" horiz-adv-x="1716" d="M217 557v170h1282v-170h-1282zM735 150v245h246v-245h-246zM735 889v246h246v-246h-246z" />
<glyph unicode="&#xf8;" horiz-adv-x="1253" d="M72 -16l149 182q-54 77 -81 175.5t-27 217.5q0 276 136.5 432t377.5 156q93 0 172.5 -25.5t146.5 -77.5l139 168l95 -79l-146 -179q53 -77 80 -176t27 -219q0 -275 -137 -431.5t-377 -156.5q-96 0 -176.5 26t-143.5 77l-139 -168zM307 545q0 -72 9.5 -127t29.5 -101 l488 592q-42 41 -93.5 61.5t-113.5 20.5q-151 0 -235.5 -117.5t-84.5 -328.5zM418 209q41 -42 92.5 -62t116.5 -20q147 0 233 116t86 316q0 79 -10 137.5t-31 104.5z" />
<glyph unicode="&#xfe;" horiz-adv-x="1300" d="M186 -426v1982h185v-606q58 100 146.5 148.5t211.5 48.5q204 0 331.5 -162t127.5 -426t-127.5 -426t-331.5 -162q-123 0 -211.5 48.5t-146.5 148.5v-594h-185zM371 559q0 -203 83.5 -318.5t229.5 -115.5t229.5 115.5t83.5 318.5t-83.5 318.5t-229.5 115.5t-229.5 -115.5 t-83.5 -318.5z" />
<glyph unicode="&#x152;" horiz-adv-x="2191" d="M115 748q0 365 223.5 555t656.5 190h1047v-170h-742v-442h711v-170h-711v-541h760v-170h-1065q-433 0 -656.5 190t-223.5 558zM328 748q0 -289 160 -433.5t481 -144.5h129v1153h-129q-321 0 -481 -143.5t-160 -431.5z" />
<glyph unicode="&#x153;" horiz-adv-x="2095" d="M113 559q0 276 136.5 432t377.5 156q140 0 245.5 -55.5t171.5 -163.5q78 107 194 163t259 56q226 0 358 -145.5t132 -395.5v-90h-846q12 -190 114 -289.5t285 -99.5q106 0 206 26t198 78v-174q-100 -42 -204 -64t-210 -22q-160 0 -281 55t-202 164 q-71 -110 -175.5 -164.5t-244.5 -54.5q-241 0 -377.5 156.5t-136.5 431.5zM307 559q0 -201 85.5 -316.5t234.5 -115.5q147 0 233 116t86 316q0 199 -86 315.5t-233 116.5q-148 0 -234 -115.5t-86 -316.5zM1147 659l655 1q-2 152 -84 241.5t-219 89.5q-153 0 -245.5 -87 t-106.5 -245z" />
<glyph unicode="&#x2c6;" horiz-adv-x="1024" d="M193 1262l245 376h148l245 -376h-139l-180 245l-180 -245h-139z" />
<glyph unicode="&#x2dc;" horiz-adv-x="1024" d="M182 1309q2 135 53 208.5t142 73.5q38 0 70 -14t69 -47l57 -55q22 -20 38.5 -29.5t29.5 -9.5q38 0 56 36.5t20 118.5h125q-2 -135 -53 -208.5t-142 -73.5q-38 0 -70 14t-69 47l-57 55q-22 20 -38.5 29.5t-29.5 9.5q-38 0 -56 -36.5t-20 -118.5h-125z" />
<glyph unicode="&#x2000;" horiz-adv-x="980" />
<glyph unicode="&#x2001;" horiz-adv-x="1961" />
<glyph unicode="&#x2002;" horiz-adv-x="980" />
<glyph unicode="&#x2003;" horiz-adv-x="1961" />
<glyph unicode="&#x2004;" horiz-adv-x="653" />
<glyph unicode="&#x2005;" horiz-adv-x="490" />
<glyph unicode="&#x2006;" horiz-adv-x="326" />
<glyph unicode="&#x2007;" horiz-adv-x="326" />
<glyph unicode="&#x2008;" horiz-adv-x="245" />
<glyph unicode="&#x2009;" horiz-adv-x="392" />
<glyph unicode="&#x200a;" horiz-adv-x="108" />
<glyph unicode="&#x2010;" horiz-adv-x="739" d="M100 479v164h539v-164h-539z" />
<glyph unicode="&#x2011;" horiz-adv-x="739" d="M100 479v164h539v-164h-539z" />
<glyph unicode="&#x2012;" horiz-adv-x="739" d="M100 479v164h539v-164h-539z" />
<glyph unicode="&#x2013;" horiz-adv-x="1024" d="M0 489v144h1024v-144h-1024z" />
<glyph unicode="&#x2014;" horiz-adv-x="2048" d="M0 489v144h2048v-144h-2048z" />
<glyph unicode="&#x2018;" horiz-adv-x="651" d="M174 1001v173l164 319h129l-82 -319v-173h-211z" />
<glyph unicode="&#x2019;" horiz-adv-x="651" d="M178 1022l82 319v152h211v-152l-164 -319h-129z" />
<glyph unicode="&#x201a;" horiz-adv-x="651" d="M174 -238l82 320v172h211v-172l-164 -320h-129z" />
<glyph unicode="&#x201c;" horiz-adv-x="1061" d="M174 1001v173l164 319h129l-82 -319v-173h-211zM584 1001v173l164 319h129l-82 -319v-173h-211z" />
<glyph unicode="&#x201d;" horiz-adv-x="1061" d="M174 1001l82 320v172h211v-172l-164 -320h-129zM584 1001l82 320v172h211v-172l-164 -320h-129z" />
<glyph unicode="&#x201e;" horiz-adv-x="1061" d="M174 -238l82 320v172h211v-172l-164 -320h-129zM584 -238l82 320v172h211v-172l-164 -320h-129z" />
<glyph unicode="&#x2022;" horiz-adv-x="1208" d="M307 762q0 124 86.5 209.5t212.5 85.5q124 0 209.5 -85.5t85.5 -209.5q0 -125 -86 -211t-211 -86t-211 86t-86 211z" />
<glyph unicode="&#x2026;" horiz-adv-x="2048" d="M236 0v254h213v-254h-213zM918 0v254h212v-254h-212zM1599 0v254h213v-254h-213z" />
<glyph unicode="&#x202f;" horiz-adv-x="392" />
<glyph unicode="&#x2039;" horiz-adv-x="819" d="M158 559v82l469 418v-191l-301 -268l301 -268v-191z" />
<glyph unicode="&#x203a;" horiz-adv-x="819" d="M193 141v191l301 268l-301 268v191l469 -418v-82z" />
<glyph unicode="&#x205f;" horiz-adv-x="490" />
<glyph unicode="&#x20ac;" d="M0 520l55 123h139q0 23 -0.5 46.5t-0.5 55.5q0 35 0.5 58.5t0.5 46.5h-194l55 123h156q40 257 195 402t391 145q98 0 190.5 -35.5t179.5 -106.5v-213q-91 105 -175.5 150t-186.5 45q-157 0 -258 -100t-133 -287h577l-55 -123h-538q-2 -24 -2.5 -47t-0.5 -58 q0 -32 0.5 -55t2.5 -47h446l-56 -123h-374q32 -187 133 -288t258 -101q102 0 186.5 45t175.5 150v-211q-89 -72 -181.5 -108t-188.5 -36q-237 0 -391.5 145t-194.5 404h-211z" />
<glyph unicode="&#x2122;" horiz-adv-x="2048" d="M295 1399v94h518v-94h-203v-484h-114v484h-201zM926 915v578h172l174 -256l164 256h170v-578h-113v484l-195 -303h-55l-203 303v-484h-114z" />
<glyph unicode="&#xe000;" horiz-adv-x="1120" d="M0 0v1120h1120v-1120h-1120z" />
<glyph unicode="&#xfb01;" horiz-adv-x="1290" d="M47 977v143h176v78q0 183 86.5 270.5t265.5 87.5h185v-153h-176q-99 0 -137.5 -40t-38.5 -144v-99h690v-1120h-185v977h-505v-977h-185v977h-176zM913 1321v233h185v-233h-185z" />
<glyph unicode="&#xfb02;" horiz-adv-x="1290" d="M47 977v143h176v78q0 187 87 272.5t276 85.5h512v-1556h-185v1403h-329q-99 0 -137.5 -40t-38.5 -144v-99h303v-143h-303v-977h-185v977h-176z" />
</font>
</defs>
</svg>
