<?xml version="1.0" encoding="iso-8859-1"?>
<!-- Generator: Adobe Illustrator 19.0.0, SVG Export Plug-In . SVG Version: 6.00 Build 0)  -->
<svg xmlns="http://www.w3.org/2000/svg" xmlns:xlink="http://www.w3.org/1999/xlink" version="1.1" id="Layer_1" x="0px" y="0px" viewBox="0 0 512.001 512.001" style="enable-background:new 0 0 512.001 512.001;" xml:space="preserve" width="80px" height="80px">
<path d="M450.536,224.687h49.976L256.001,0L11.489,224.687h49.976v269.357H22.558v17.957h466.886v-17.957h-38.907V224.687z   M57.569,206.73l26.056-23.943h262.161V164.83h-242.62L256.001,24.387l198.431,182.342H57.569V206.73z M79.422,278.558h68.836  v-17.957H79.422v-35.914h353.157v35.914h-68.836v17.957h68.836v215.486h-167.6v-59.857h65.843v-83.8h17.957V290.53h-47.886v-44.893  h-17.957v44.893h-53.871v-44.893h-17.957v44.893h-47.886v59.857h17.957v83.8h65.843v59.857h-167.6L79.422,278.558L79.422,278.558z   M330.822,308.486v23.943H181.179v-23.943H330.822z M199.136,350.386h113.729v65.843H199.136L199.136,350.386L199.136,350.386z" fill="#e87234"/>
<path d="M256.001,69.058c-21.454,0-38.907,17.454-38.907,38.907s17.453,38.907,38.907,38.907c21.454,0,38.907-17.454,38.907-38.907  S277.455,69.058,256.001,69.058z M256.001,128.916c-11.551,0-20.95-9.399-20.95-20.95s9.399-20.95,20.95-20.95  s20.95,9.399,20.95,20.95S267.552,128.916,256.001,128.916z" fill="#e87234"/>
<rect x="226.068" y="374.335" width="59.857" height="17.957" fill="#e87234"/>
<rect x="100.368" y="452.149" width="23.943" height="17.957" fill="#e87234"/>
<rect x="136.283" y="452.149" width="23.943" height="17.957" fill="#e87234"/>
<rect x="100.368" y="416.235" width="23.943" height="17.957" fill="#e87234"/>
<rect x="387.683" y="452.149" width="23.943" height="17.957" fill="#e87234"/>
<rect x="387.683" y="416.235" width="23.943" height="17.957" fill="#e87234"/>
<rect x="351.768" y="452.149" width="23.943" height="17.957" fill="#e87234"/>
<g>
</g>
<g>
</g>
<g>
</g>
<g>
</g>
<g>
</g>
<g>
</g>
<g>
</g>
<g>
</g>
<g>
</g>
<g>
</g>
<g>
</g>
<g>
</g>
<g>
</g>
<g>
</g>
<g>
</g>
</svg>
