<svg id="Layer_1" enable-background="new 0 0 512 512" height="80px" viewBox="0 0 512 512" width="80px" xmlns="http://www.w3.org/2000/svg"><g><g><path d="m256 24.714c4.143 0 7.5-3.358 7.5-7.5v-9.714c0-4.142-3.357-7.5-7.5-7.5s-7.5 3.358-7.5 7.5v9.714c0 4.142 3.357 7.5 7.5 7.5z"  fill="#e87234"/><path d="m302.161 43.839c1.919 0 3.839-.732 5.304-2.197l6.871-6.871c2.929-2.929 2.929-7.678 0-10.606-2.93-2.929-7.678-2.929-10.607 0l-6.871 6.871c-2.929 2.929-2.929 7.678 0 10.606 1.464 1.464 3.384 2.197 5.303 2.197z"  fill="#e87234"/><path d="m313.786 82.5c0 4.142 3.357 7.5 7.5 7.5h9.714c4.143 0 7.5-3.358 7.5-7.5s-3.357-7.5-7.5-7.5h-9.714c-4.142 0-7.5 3.358-7.5 7.5z"  fill="#e87234"/><path d="m181 90h9.714c4.143 0 7.5-3.358 7.5-7.5s-3.357-7.5-7.5-7.5h-9.714c-4.143 0-7.5 3.358-7.5 7.5s3.357 7.5 7.5 7.5z"  fill="#e87234"/><path d="m204.535 41.642c1.465 1.464 3.385 2.197 5.304 2.197s3.839-.732 5.304-2.197c2.929-2.929 2.929-7.678 0-10.606l-6.871-6.871c-2.93-2.929-7.678-2.929-10.607 0s-2.929 7.678 0 10.606z"  fill="#e87234"/><path d="m504.5 99.5h-206.839c2.186-5.365 3.339-11.144 3.339-17 0-24.813-20.187-45-45-45s-45 20.187-45 45c0 5.856 1.153 11.634 3.339 17h-149.749c-4.143 0-7.5 3.358-7.5 7.5s3.357 7.5 7.5 7.5h88.91v24.061h-138.5v-24.061h17.077c4.143 0 7.5-3.358 7.5-7.5s-3.357-7.5-7.5-7.5h-24.577c-4.143 0-7.5 3.358-7.5 7.5v120c0 4.142 3.357 7.5 7.5 7.5h146v4.5c0 21.78 17.72 39.5 39.5 39.5h20.509c-1.923 3.752-3.009 8.002-3.009 12.5 0 13.631 9.97 24.978 23 27.132v88.868h-52.947v-11.949c0-16.917-13.763-30.68-30.68-30.68s-30.68 13.763-30.68 30.68v11.949h-17.268v-11.949c0-16.917-13.763-30.68-30.68-30.68-16.916 0-30.679 13.763-30.679 30.68v11.949h-33.066c-4.143 0-7.5 3.358-7.5 7.5v60c0 20.678 16.822 37.5 37.5 37.5h58.064c4.143 0 7.5-3.358 7.5-7.5s-3.357-7.5-7.5-7.5h-58.064c-12.406 0-22.5-10.093-22.5-22.5v-52.5h482v52.5c0 12.407-10.094 22.5-22.5 22.5h-346.115c-4.143 0-7.5 3.358-7.5 7.5s3.357 7.5 7.5 7.5h346.115c20.678 0 37.5-16.822 37.5-37.5v-60c0-4.142-3.357-7.5-7.5-7.5h-33.067v-11.949c0-16.917-13.763-30.68-30.679-30.68-16.917 0-30.68 13.763-30.68 30.68v11.949h-17.268v-11.949c0-16.917-13.763-30.68-30.68-30.68s-30.68 13.763-30.68 30.68v11.949h-52.946v-88.868c13.03-2.154 23-13.5 23-27.132 0-4.498-1.086-8.748-3.009-12.5h20.509c21.78 0 39.5-17.72 39.5-39.5v-4.5h25.475c4.143 0 7.5-3.358 7.5-7.5s-3.357-7.5-7.5-7.5h-25.475v-24.061h138.5v24.061h-80.77c-4.143 0-7.5 3.358-7.5 7.5s3.357 7.5 7.5 7.5h88.27c4.143 0 7.5-3.358 7.5-7.5v-120c0-4.142-3.357-7.5-7.5-7.5zm-7.5 39.061h-138.5v-24.061h138.5zm-271-56.061c0-16.542 13.458-30 30-30s30 13.458 30 30c0 6.073-1.859 12.02-5.275 17h-49.45c-3.416-4.979-5.275-10.927-5.275-17zm-57.5 32h175v24.061h-175zm175 39.061v26.878h-175v-26.878zm-190 0v26.878h-138.5v-26.878zm-138.5 41.878h138.5v24.061h-138.5zm40.567 211.561v-11.949c0-8.646 7.033-15.68 15.679-15.68s15.68 7.034 15.68 15.68v11.949zm78.626 0v-11.949c0-8.646 7.034-15.68 15.68-15.68s15.68 7.034 15.68 15.68v11.949zm290.881-11.949c0-8.646 7.034-15.68 15.68-15.68s15.679 7.034 15.679 15.68v11.949h-31.358v-11.949zm-78.627 0c0-8.646 7.034-15.68 15.68-15.68s15.68 7.034 15.68 15.68v11.949h-31.359v-11.949zm-97.947 11.949v-88.5h15v88.5zm38-116c0 6.893-5.607 12.5-12.5 12.5h-36c-6.893 0-12.5-5.607-12.5-12.5s5.607-12.5 12.5-12.5h36c6.893 0 12.5 5.607 12.5 12.5zm57-52c0 13.509-10.99 24.5-24.5 24.5h-126c-13.51 0-24.5-10.991-24.5-24.5v-4.5h175zm0-19.5h-175v-24.061h175zm15-39.061v-26.878h138.5v26.878z"  fill="#e87234"/></g></g></svg>
